<svg width="200" height="191" viewBox="0 0 200 191" fill="none" xmlns="http://www.w3.org/2000/svg">
<path d="M156.726 190.482C155.651 190.482 154.217 190.123 153.142 189.765L99.7513 161.815L46.3601 189.765C43.8518 191.198 40.6269 190.84 38.4769 189.048C36.3269 187.257 34.8936 184.39 35.6102 181.882L45.6435 122.399L2.28553 80.1159C0.135554 77.966 -0.581106 75.0993 0.493884 72.591C1.21054 69.7244 3.71886 67.9327 6.5855 67.5744L66.4266 58.9745L93.3014 4.86664C94.7347 2.35833 97.243 0.566681 100.11 0.566681C102.976 0.566681 105.485 2.35833 106.918 4.86664L133.793 58.9745L193.634 67.5744C196.5 67.9327 198.65 70.0827 199.725 72.591C200.442 75.4576 199.725 78.3243 197.934 80.1159L153.859 122.399L163.892 181.882C164.251 184.748 163.176 187.615 161.026 189.048C159.592 190.123 158.159 190.482 156.726 190.482Z" fill="#DCDCDC"/>
</svg>
