<svg width="66" height="64" viewBox="0 0 66 64" fill="none" xmlns="http://www.w3.org/2000/svg">
<path fill-rule="evenodd" clip-rule="evenodd" d="M32.8056 0.0110723C14.6906 0.0110723 0 14.6992 0 32.8166C0 47.3122 9.39895 59.6052 22.4343 63.9451C24.0751 64.249 24.6781 63.2319 24.6781 62.3648C24.6781 61.5826 24.6454 58.9985 24.6321 56.2595C15.5044 58.2442 13.5803 52.387 13.5803 52.387C12.0884 48.5945 9.9378 47.5859 9.9378 47.5859C6.9614 45.5478 10.1643 45.5927 10.1643 45.5927C13.4579 45.8228 15.1919 48.9711 15.1919 48.9711C18.1199 53.9867 22.869 52.5348 24.7398 51.698C25.0353 49.5778 25.8829 48.1295 26.8225 47.3098C19.5353 46.4827 11.8752 43.6686 11.8752 31.0971C11.8752 27.5164 13.1588 24.5885 15.2549 22.2925C14.9135 21.4644 13.7897 18.1296 15.5709 13.6116C15.5709 13.6116 18.3257 12.7289 24.5958 16.9743C27.2113 16.249 30.0169 15.8833 32.8032 15.8712C35.5918 15.8833 38.4023 16.2478 41.0215 16.9743C47.2831 12.7314 50.0354 13.6116 50.0354 13.6116C51.8191 18.1308 50.7003 21.468 50.3588 22.2926C52.4621 24.5885 53.7348 27.5164 53.7348 31.0971C53.7348 43.6976 46.0577 46.4681 38.7547 47.2807C39.9317 48.2978 40.9828 50.2946 40.9828 53.3533C40.9828 57.7404 40.9453 61.2762 40.9453 62.3551C40.9453 63.2282 41.5362 64.249 43.1999 63.9292C56.2279 59.587 65.6149 47.2927 65.6149 32.8056C65.6149 14.6906 50.9267 0 32.808 0L32.8057 0.0109698L32.8056 0.0110723Z" fill="white"/>
</svg>
