<svg width="64" height="64" viewBox="0 0 64 64" fill="none" xmlns="http://www.w3.org/2000/svg">
<path d="M21.3329 32.0197C21.3225 26.1296 26.0897 21.3447 31.9788 21.3343C37.8689 21.3228 42.6547 26.0881 42.6662 31.9793C42.6775 37.8705 37.9103 42.6543 32.0191 42.6658C26.1301 42.6771 21.3442 37.911 21.3329 32.0197ZM15.5694 32.0311C15.587 41.1063 22.9576 48.447 32.0306 48.4293C41.1046 48.4117 48.4494 41.0431 48.4318 31.9678C48.4142 22.8957 41.0425 15.5509 31.9674 15.5685C22.8942 15.5862 15.5517 22.9579 15.5694 32.0311ZM45.2074 14.8947C45.2115 17.0138 46.9345 18.7298 49.0539 18.7257C51.174 18.7215 52.89 16.9993 52.8869 14.8802C52.8828 12.7609 51.1597 11.0439 49.0394 11.048C46.9192 11.0522 45.2033 12.7753 45.2074 14.8947ZM19.1204 58.0697C16.0006 57.9339 14.3065 57.4155 13.1775 56.9811C11.6824 56.4025 10.6155 55.7089 9.4926 54.5944C8.37185 53.4756 7.67609 52.4119 7.09234 50.9197C6.65384 49.7907 6.12609 48.0986 5.97984 44.9788C5.82122 41.6061 5.78497 40.5942 5.76947 32.0498C5.75284 23.5074 5.78397 22.4955 5.93122 19.1197C6.06484 16.0019 6.58647 14.3057 7.01984 13.1777C7.59834 11.6805 8.28997 10.6157 9.4066 9.49278C10.5252 8.37002 11.589 7.67627 13.082 7.09252C14.2101 6.6519 15.9021 6.12827 19.0209 5.98002C22.3956 5.8204 23.4065 5.78615 31.9488 5.76952C40.4929 5.75302 41.5048 5.78302 44.8808 5.9314C47.9983 6.06715 49.6945 6.58352 50.8217 7.02002C52.3177 7.59852 53.3845 8.28802 54.5064 9.40678C55.6282 10.5255 56.3239 11.5872 56.9077 13.0833C57.3482 14.2083 57.8719 15.9024 58.0192 19.02C58.1798 22.3949 58.2162 23.4069 58.2317 31.9492C58.2482 40.4936 58.2171 41.5056 58.0689 44.8793C57.9331 47.9991 57.4157 49.6944 56.9803 50.8245C56.4017 52.3185 55.7102 53.3854 54.5924 54.5084C53.4748 55.627 52.411 56.3247 50.917 56.9085C49.7909 57.3481 48.0969 57.8727 44.9803 58.021C41.6055 58.1796 40.5945 58.2159 32.0493 58.2315C23.507 58.248 22.4962 58.2159 19.1204 58.0697ZM18.7471 0.221635C15.3422 0.382261 13.0167 0.927637 10.9845 1.72389C8.88085 2.54401 7.09759 3.64314 5.32371 5.42439C3.54759 7.20665 2.45684 8.99303 1.64296 11.0988C0.855082 13.1362 0.321081 15.4628 0.170706 18.8698C0.0214559 22.283 -0.0127942 23.3717 0.00383085 32.0612C0.0204559 40.7497 0.0587059 41.8405 0.221456 45.2546C0.384206 48.6585 0.927583 50.9831 1.72383 53.0162C2.54496 55.12 3.64296 56.9022 5.42521 58.6772C7.20647 60.4524 8.99397 61.542 11.1007 62.357C13.136 63.1439 15.4635 63.6799 18.8695 63.8293C22.2826 63.9796 23.3722 64.0127 32.0596 63.9961C40.7511 63.9796 41.8409 63.9412 45.254 63.7795C48.6589 63.6166 50.9823 63.0714 53.0165 62.2771C55.1202 61.4539 56.9034 60.358 58.6776 58.5757C60.4514 56.7944 61.5422 55.007 62.3561 52.9001C63.1441 50.8649 63.6801 48.5372 63.8282 45.1333C63.9776 41.7181 64.0129 40.6273 63.9962 31.9388C63.9796 23.2493 63.9403 22.1607 63.7786 18.7484C63.6168 15.3415 63.0714 13.0179 62.2762 10.9837C61.4541 8.88003 60.3572 7.09877 58.5759 5.32277C56.7947 3.54877 55.0072 2.45589 52.9004 1.64414C50.8642 0.856012 48.5375 0.319011 45.1317 0.17176C41.7184 0.02051 40.6288 -0.01274 31.9383 0.00388498C23.2499 0.02051 22.1602 0.0577601 18.7471 0.221635Z" fill="white"/>
</svg>
