<svg width="250" height="215" viewBox="0 0 250 215" fill="none" xmlns="http://www.w3.org/2000/svg">
<path d="M241.399 81.1187C239.089 80.4737 236.516 80.1687 231.098 79.5C208.67 78.58 153.245 76.425 125.001 76.425C96.7587 76.425 41.3325 78.5787 18.9075 79.5C13.4862 80.1687 10.9112 80.4737 8.6025 81.1187C1.55125 82.7812 0 85.3125 0 90.3625V124.974C0 130.025 5.41125 133.429 9.14125 134.115C12.8737 134.806 15.235 135.082 19.1613 135.456C39.22 136.699 85.7575 139.289 125 139.33C164.244 139.292 210.779 136.7 230.839 135.456C234.764 135.082 237.126 134.805 240.86 134.115C244.589 133.427 250 130.025 250 124.974V90.3625C250 85.3125 248.45 82.7812 241.399 81.1187Z" fill="url(#paint0_linear_10_34)"/>
<path d="M35.0625 82.48C46.0975 44.0925 82.3563 15.9262 125.398 15.9262C168.315 15.9262 204.5 43.9375 215.643 82.1712C215.678 82.3062 215.701 82.3762 215.74 82.5062C222.138 81.7875 227.869 80.6775 231.919 79.5962C231.845 79.35 231.826 79.3 231.763 79.0575C219.099 33.5137 176.276 0 125.398 0C74.3475 0 31.4125 33.7312 18.905 79.5C24.5313 81.0412 28.6525 81.6875 35.0625 82.48Z" fill="url(#paint1_radial_10_34)"/>
<path d="M215.379 132.792C215.268 133.134 215.144 133.51 215.086 133.696C203.353 171.011 167.64 198.151 125.399 198.151C82.8238 198.151 46.8863 170.593 35.4375 132.829C28.44 134.068 26.0763 134.539 19.1613 135.459C31.9738 180.78 74.6788 214.077 125.399 214.077C176.14 214.077 218.86 180.745 231.649 135.386C225.556 134.634 221.968 134.065 215.379 132.792Z" fill="url(#paint2_radial_10_34)"/>
<path d="M37.315 82.3975C39.9712 81.3 42.5412 79.55 46.5475 78.4237C58.4912 47.3925 89.2837 25.295 125.396 25.295C161.396 25.295 192.112 47.2562 204.131 78.1375C204.174 78.2425 204.217 78.37 204.251 78.4487C206.319 79.165 212.41 81.635 214.305 82.4612C214.574 82.4675 215.147 82.4875 215.74 82.5037C215.705 82.3927 215.673 82.281 215.642 82.1687C204.495 43.9475 168.311 15.945 125.396 15.945C82.3662 15.945 46.1075 44.0987 35.0687 82.4787C35.7062 82.48 36.92 82.425 37.315 82.3975Z" fill="url(#paint3_radial_10_34)"/>
<path d="M124.711 18.5412C164.977 18.5412 200.671 42.5512 214.191 82.1275L214.301 82.4638C214.511 82.4638 215.277 82.4912 215.736 82.5062C215.7 82.3625 215.662 82.2787 215.639 82.1712C204.491 43.95 168.307 15.9475 125.392 15.9475C82.3625 15.9475 46.1037 44.1013 35.0649 82.4813C35.9249 82.4675 36.3387 82.4675 37.3137 82.3987C49.4012 44.8262 84.7412 18.5412 124.711 18.5412Z" fill="white"/>
<path d="M213.096 132.901C210.204 134.517 206.603 136.072 203.724 136.981C203.685 137.074 203.521 137.484 203.486 137.58C191.034 167.607 160.763 188.804 125.398 188.804C89.81 188.804 59.3838 167.35 47.0763 137.025C43.765 136.106 38.815 133.849 36.9413 132.906C36.24 132.872 35.8625 132.852 35.4313 132.83C46.88 170.589 82.8238 198.152 125.399 198.152C167.781 198.152 203.586 170.841 215.203 133.349C215.228 133.276 215.356 132.864 215.384 132.794C214.713 132.82 213.686 132.901 213.096 132.901Z" fill="url(#paint4_radial_10_34)"/>
<path d="M239.395 83.625C233.455 82.9025 229.405 82.98 214.935 82.4812C214.277 82.4575 213.609 82.4375 212.93 82.4137C186.692 81.5137 147.28 80.3112 125 80.3112C102.721 80.3112 63.31 81.5137 37.0687 82.4137C36.3912 82.4375 35.725 82.4575 35.0688 82.4812C20.5963 82.98 16.5475 82.9025 10.6062 83.625C4.66625 84.3537 0 86.955 0 91.3787V123.475C0 127.901 5.62125 131.485 10.605 131.485C10.605 131.485 74.0375 135.401 125 135.447C175.964 135.401 239.395 131.485 239.395 131.485C244.379 131.485 250 127.901 250 123.475V91.3787C250 86.955 245.335 84.3537 239.395 83.625Z" fill="url(#paint5_radial_10_34)"/>
<path d="M213.096 132.901C200.647 169.83 165.637 195.555 126.091 195.555C86.1425 195.555 50.695 171.922 36.9375 132.901C36.4325 132.875 35.9325 132.855 35.4387 132.826C46.885 170.586 82.835 198.15 125.411 198.15C168.001 198.15 203.955 170.569 215.391 132.789C214.639 132.824 213.875 132.865 213.096 132.901Z" fill="white"/>
<path d="M213.169 132.899L213.093 132.901C210.2 134.518 206.601 136.073 203.72 136.981C203.681 137.074 203.518 137.484 203.484 137.58C199.544 147.083 193.819 155.7 186.706 163.044C197.839 154.905 206.919 144.623 213.169 132.899Z" fill="#8C8C8C"/>
<path d="M66.4874 165.433C58.1149 157.457 51.4499 147.804 47.0749 137.022C43.7637 136.102 38.8149 133.844 36.9399 132.901C38.9436 137.055 41.3059 141.026 43.9999 144.769C49.5112 151.946 56.1912 158.344 63.7949 163.758C64.6799 164.338 65.5774 164.895 66.4874 165.433Z" fill="#4D4D4D"/>
<path d="M35.435 132.831V132.829L35.4063 132.834C28.4313 134.07 26.065 134.544 19.16 135.459C19.7163 137.434 20.3325 139.38 21.0038 141.306L35.435 132.831Z" fill="#252525"/>
<path d="M175.796 97.84C173.711 93.18 174.451 93.6687 169.912 93.5487C169.544 93.4237 168.56 93.4237 167.212 93.4237C165.867 93.4237 165.62 93.4237 164.515 93.5487C160.225 93.5487 160.96 93.3037 159.49 96.3687C159.49 96.3687 152.126 112.921 148.941 119.787L148.819 120.032C148.206 121.256 148.575 121.256 149.554 121.256H156.177C156.67 121.256 156.912 121.016 157.035 120.766C157.035 120.766 158.016 118.681 159.242 115.74H175.429C176.656 118.561 177.514 120.644 177.514 120.766C177.636 121.135 178.005 121.256 178.371 121.256H185.239C186.22 121.256 186.466 121.385 186.099 120.521C184.87 117.58 176.9 100.411 175.796 97.84ZM161.692 109.855C163.777 104.951 165.865 100.17 165.865 100.046C165.989 99.8 166.234 99.6775 166.6 99.6775C166.724 99.5525 167.094 99.5525 167.46 99.5525C167.706 99.5525 168.071 99.5525 168.195 99.6775C168.439 99.6775 168.689 99.8 168.806 100.169C169.301 101.515 171.136 105.686 172.852 109.855H161.692ZM73.4025 93.1787C74.015 93.1787 74.1387 93.4225 74.1387 93.9137V120.157C74.1387 120.767 74.015 121.017 73.2812 121.017H66.9037C66.17 121.017 66.0475 120.892 66.0475 120.157V93.9137C66.0475 93.4225 66.17 93.1787 66.6587 93.1787H73.4025ZM59.7912 93.4225C60.525 93.4225 60.6512 93.6662 60.6512 94.2825V120.402C60.6512 121.14 60.525 121.262 59.7912 121.262H52.31C47.8975 121.262 47.5287 121.262 46.0587 118.812C42.9925 114.031 33.7937 99.9287 33.7937 99.9287V120.405C33.7937 121.144 33.6712 121.264 32.9375 121.264H27.4175C26.6825 121.264 26.5587 121.144 26.5587 120.405V94.2825C26.5587 93.6687 26.6825 93.4225 27.4175 93.4225H33.7937C38.5762 93.4225 39.1887 93.3012 40.9087 95.7537C42.2562 97.9625 53.415 115.129 53.415 115.129V94.2825C53.415 93.6687 53.5375 93.4225 54.275 93.4225H59.7912ZM223.496 93.4225C224.236 93.4225 224.356 93.6662 224.356 94.2825V120.402C224.356 121.14 224.234 121.262 223.496 121.262H216.022C211.604 121.262 211.235 121.262 209.765 118.812C206.696 114.027 197.5 99.9262 197.5 99.9262V120.404C197.5 121.141 197.377 121.261 196.64 121.261H191.125C190.39 121.261 190.264 121.141 190.264 120.404V94.2825C190.264 93.6687 190.391 93.4225 191.125 93.4225H197.5C202.282 93.4225 202.897 93.3012 204.611 95.7537C206.084 97.9625 217.121 115.129 217.121 115.129V94.2825C217.121 93.6687 217.245 93.4225 217.981 93.4225H223.496ZM101.485 104.095C106.391 104.584 109.949 105.441 110.929 110.102C110.929 110.467 111.052 111.695 111.052 113.045C111.052 113.905 111.052 115.005 110.806 115.987C109.95 120.401 106.636 121.259 101.489 121.259H80.8837C80.1475 121.259 80.0237 121.139 80.0237 120.401V115.987C80.0237 115.25 80.1475 115.127 80.8837 115.127H101.727C102.587 115.127 102.832 114.884 102.954 114.267V113.164V112.429C102.83 111.936 102.709 111.201 101.606 111.081C99.275 110.959 92.41 110.344 87.7475 109.855C81.7387 109.241 80.2687 106.669 80.0225 104.46C79.9 103.722 79.9 102.742 79.9 101.884C79.9 101.147 79.9 100.045 80.0225 99.185C80.8825 95.2587 83.8262 93.4225 88.9737 93.4225H108.961C109.7 93.4225 109.946 93.5475 109.946 94.1587V98.6975C109.946 99.3062 109.7 99.5537 108.961 99.4312H89.3425C88.4837 99.4312 88.1175 99.7987 87.9925 100.656V101.76C87.9925 102.374 88.3612 102.865 89.2187 102.984C91.5537 103.234 98.7862 103.846 101.485 104.095ZM136.921 104.095C141.831 104.584 145.385 105.441 146.367 110.102C146.367 110.467 146.49 111.695 146.49 113.045C146.49 113.905 146.49 115.005 146.245 115.987C145.389 120.401 142.079 121.259 136.926 121.259H116.322C115.586 121.259 115.462 121.139 115.462 120.401V115.987C115.462 115.25 115.586 115.127 116.322 115.127H137.17C138.027 115.127 138.269 114.884 138.395 114.267V113.164V112.429C138.267 111.936 138.025 111.201 137.045 111.081C134.716 110.959 127.849 110.344 123.19 109.855C117.179 109.241 115.832 106.669 115.462 104.46C115.34 103.722 115.34 102.742 115.34 101.884C115.34 101.147 115.34 100.045 115.462 99.185C116.322 95.2587 119.265 93.4225 124.414 93.4225H144.405C145.137 93.4225 145.386 93.5475 145.386 94.1587V98.6975C145.386 99.3062 145.137 99.5537 144.405 99.4312H124.782C123.925 99.4312 123.559 99.7987 123.434 100.656V101.76C123.434 102.374 123.68 102.865 124.662 102.984C126.992 103.234 134.225 103.846 136.921 104.095Z" fill="url(#paint6_radial_10_34)"/>
<defs>
<linearGradient id="paint0_linear_10_34" x1="125" y1="3.16" x2="125" y2="177.411" gradientUnits="userSpaceOnUse">
<stop offset="0.194" stop-color="white"/>
<stop offset="0.208" stop-color="#F8F8F8"/>
<stop offset="0.366" stop-color="#AEAEAE"/>
<stop offset="0.513" stop-color="#707070"/>
<stop offset="0.647" stop-color="#404040"/>
<stop offset="0.764" stop-color="#1D1D1D"/>
<stop offset="0.86" stop-color="#080808"/>
<stop offset="0.922"/>
</linearGradient>
<radialGradient id="paint1_radial_10_34" cx="0" cy="0" r="1" gradientUnits="userSpaceOnUse" gradientTransform="translate(54.8213 -43.0362) scale(174.329 174.329)">
<stop offset="0.202" stop-color="white"/>
<stop offset="0.382" stop-color="#FDFDFD"/>
<stop offset="0.487" stop-color="#F4F4F4"/>
<stop offset="0.573" stop-color="#E6E6E6"/>
<stop offset="0.648" stop-color="#D2D2D2"/>
<stop offset="0.689" stop-color="#C4C4C4"/>
<stop offset="1" stop-color="#333333"/>
</radialGradient>
<radialGradient id="paint2_radial_10_34" cx="0" cy="0" r="1" gradientUnits="userSpaceOnUse" gradientTransform="translate(476.707 236.194) scale(363.062 363.063)">
<stop offset="0.202" stop-color="white"/>
<stop offset="0.368" stop-color="#E4E4E4"/>
<stop offset="0.594" stop-color="#C4C4C4"/>
<stop offset="1" stop-color="#333333"/>
</radialGradient>
<radialGradient id="paint3_radial_10_34" cx="0" cy="0" r="1" gradientUnits="userSpaceOnUse" gradientTransform="translate(96.6937 156.075) scale(111.461 111.461)">
<stop offset="0.202" stop-color="white"/>
<stop offset="0.368" stop-color="#E4E4E4"/>
<stop offset="0.594" stop-color="#C4C4C4"/>
<stop offset="1" stop-color="#333333"/>
</radialGradient>
<radialGradient id="paint4_radial_10_34" cx="0" cy="0" r="1" gradientUnits="userSpaceOnUse" gradientTransform="translate(186.64 270.047) scale(211.492 211.492)">
<stop offset="0.202" stop-color="white"/>
<stop offset="0.368" stop-color="#E4E4E4"/>
<stop offset="0.594" stop-color="#C4C4C4"/>
<stop offset="1" stop-color="#333333"/>
</radialGradient>
<radialGradient id="paint5_radial_10_34" cx="0" cy="0" r="1" gradientUnits="userSpaceOnUse" gradientTransform="translate(123.325 22.0537) scale(168.065 168.065)">
<stop offset="0.202" stop-color="white"/>
<stop offset="0.397" stop-color="#FDFDFD"/>
<stop offset="0.51" stop-color="#F4F4F4"/>
<stop offset="0.603" stop-color="#E6E6E6"/>
<stop offset="0.684" stop-color="#D2D2D2"/>
<stop offset="0.728" stop-color="#C4C4C4"/>
<stop offset="1" stop-color="#4D4D4D"/>
</radialGradient>
<radialGradient id="paint6_radial_10_34" cx="0" cy="0" r="1" gradientUnits="userSpaceOnUse" gradientTransform="translate(127.217 38.8838) scale(113.201 113.201)">
<stop offset="0.111" stop-color="#4D4D4D"/>
<stop offset="0.248" stop-color="#494949"/>
<stop offset="0.355" stop-color="#404040"/>
<stop offset="0.451" stop-color="#2F2F2F"/>
<stop offset="0.541" stop-color="#181818"/>
<stop offset="0.611"/>
</radialGradient>
</defs>
</svg>
