<svg width="400" height="400" viewBox="0 0 400 400" fill="none" xmlns="http://www.w3.org/2000/svg">
<circle cx="200" cy="200" r="193.5" fill="#444444" stroke="#353535" stroke-width="13"/>
<rect width="5" height="20.9974" rx="2" transform="matrix(-0.983495 0.180937 -0.166635 -0.986018 172.544 43.1621)" fill="#A01919"/>
<rect width="5" height="20.8082" rx="2" transform="matrix(-0.856589 0.515999 -0.48417 -0.874974 121.119 61.3968)" fill="#A01919"/>
<rect width="5" height="20.5149" rx="2" transform="matrix(-0.6267 0.779261 -0.752394 -0.658713 80.3574 96.5769)" fill="#A01919"/>
<rect width="5" height="20.2535" rx="2" transform="matrix(-0.329376 0.944199 -0.93486 -0.355017 53.698 145.266)" fill="#D9D9D9"/>
<rect x="24" y="201.201" width="5" height="20.1494" rx="2" transform="rotate(-90 24 201.201)" fill="#D9D9D9"/>
<rect width="5" height="20.2535" rx="2" transform="matrix(-0.329376 -0.944199 0.93486 -0.355017 34.7638 263.57)" fill="#D9D9D9"/>
<rect width="5" height="20.5149" rx="2" transform="matrix(-0.6267 -0.779261 0.752394 -0.658713 64.9222 317.529)" fill="#D9D9D9"/>
<rect width="5" height="20.8082" rx="2" transform="matrix(-0.856589 -0.515999 0.48417 -0.874974 111.044 357.473)" fill="#D9D9D9"/>
<rect width="5" height="20.9974" rx="2" transform="matrix(-0.983495 -0.180937 0.166635 -0.986018 167.03 378.496)" fill="#D9D9D9"/>
<path d="M142.665 41.6205C143.029 42.6634 142.487 43.8267 141.454 44.2189L140.52 44.5739C139.487 44.966 138.355 44.4385 137.991 43.3955L134.714 34.0021C134.35 32.9592 134.893 31.7958 135.925 31.4037L136.86 31.0487C137.893 30.6565 139.025 31.1841 139.389 32.227L142.665 41.6205Z" fill="#A01919"/>
<path d="M94.0443 70.0497C94.7366 70.9104 94.624 72.198 93.7929 72.9256L93.0405 73.5844C92.2095 74.3119 90.9746 74.204 90.2824 73.3433L84.1547 65.7238C83.4624 64.8631 83.575 63.5755 84.406 62.8479L85.1584 62.1892C85.9895 61.4616 87.2244 61.5695 87.9166 62.4303L94.0443 70.0497Z" fill="#A01919"/>
<path d="M57.488 114.815C58.4342 115.385 58.7676 116.631 58.2328 117.597L57.7487 118.472C57.2139 119.439 56.0133 119.76 55.0671 119.19L46.8603 114.247C45.9141 113.677 45.5806 112.431 46.1154 111.465L46.5996 110.59C47.1344 109.623 48.335 109.302 49.2811 109.872L57.488 114.815Z" fill="#D9D9D9"/>
<path d="M28.3319 233.075C27.2455 233.274 26.2157 232.553 26.0316 231.464L25.865 230.478C25.6809 229.389 26.4123 228.344 27.4987 228.144L36.7935 226.434C37.8799 226.235 38.9097 226.955 39.0938 228.045L39.2604 229.031C39.4445 230.12 38.713 231.165 37.6267 231.365L28.3319 233.075Z" fill="#D9D9D9"/>
<path d="M88.2008 337.782C87.5086 338.642 86.2737 338.75 85.4426 338.023L84.6902 337.364C83.8591 336.637 83.7466 335.349 84.4388 334.488L90.5665 326.869C91.2588 326.008 92.4936 325.9 93.3247 326.628L94.0771 327.286C94.9082 328.014 95.0207 329.302 94.3285 330.162L88.2008 337.782Z" fill="#D9D9D9"/>
<path d="M37.6268 170.037C38.7131 170.237 39.4445 171.282 39.2605 172.371L39.0938 173.357C38.9098 174.446 37.8799 175.167 36.7936 174.967L27.4987 173.257C26.4124 173.057 25.681 172.012 25.865 170.923L26.0317 169.937C26.2157 168.848 27.2456 168.127 28.3319 168.327L37.6268 170.037Z" fill="#D9D9D9"/>
<path d="M48.6094 291.128C47.6633 291.698 46.4627 291.377 45.9279 290.41L45.4437 289.535C44.9089 288.569 45.2424 287.323 46.1886 286.753L54.3954 281.81C55.3416 281.24 56.5422 281.561 57.077 282.528L57.5611 283.403C58.0959 284.369 57.7625 285.615 56.8163 286.185L48.6094 291.128Z" fill="#D9D9D9"/>
<path d="M139.388 368.899C139.025 369.942 137.893 370.47 136.86 370.078L135.925 369.723C134.893 369.331 134.35 368.167 134.714 367.124L137.991 357.731C138.355 356.688 139.487 356.16 140.519 356.553L141.454 356.908C142.487 357.3 143.029 358.463 142.665 359.506L139.388 368.899Z" fill="#D9D9D9"/>
<path d="M154.997 33.3373C155.272 34.4072 154.632 35.5156 153.568 35.813L152.605 36.0822C151.542 36.3796 150.457 35.7534 150.182 34.6836L148.569 28.4044C148.294 27.3346 148.934 26.2262 149.998 25.9288L150.961 25.6596C152.025 25.3622 153.11 25.9884 153.385 27.0582L154.997 33.3373Z" fill="#A01919"/>
<path d="M128.652 43.5676C129.102 44.5761 128.663 45.7853 127.669 46.2685L126.77 46.706C125.777 47.1893 124.606 46.7635 124.156 45.7551L121.53 39.8802C121.079 38.8718 121.519 37.6626 122.512 37.1793L123.412 36.7418C124.405 36.2586 125.575 36.6843 126.026 37.6928L128.652 43.5676Z" fill="#A01919"/>
<path d="M102.852 58.1799C103.468 59.0971 103.244 60.3688 102.352 61.0204L101.545 61.6103C100.653 62.2619 99.4306 62.0466 98.8151 61.1295L95.2655 55.8403C94.65 54.9231 94.874 53.6513 95.7659 52.9997L96.5734 52.4098C97.4653 51.7582 98.6873 51.9735 99.3028 52.8907L102.852 58.1799Z" fill="#A01919"/>
<path d="M81.5382 77.7376C82.3025 78.5351 82.3025 79.828 81.5382 80.6254L80.8463 81.3474C80.082 82.1448 78.8428 82.1448 78.0785 81.3474L73.7224 76.8024C72.9581 76.0049 72.9581 74.712 73.7224 73.9146L74.4144 73.1926C75.1787 72.3952 76.4178 72.3952 77.1821 73.1926L81.5382 77.7376Z" fill="#A01919"/>
<path d="M62.0176 100.892C62.9095 101.543 63.1336 102.815 62.5181 103.732L61.9608 104.563C61.3453 105.48 60.1233 105.695 59.2314 105.043L54.2086 101.374C53.3167 100.722 53.0926 99.4505 53.7081 98.5333L54.2654 97.703C54.8809 96.7858 56.1029 96.5705 56.9948 97.2221L62.0176 100.892Z" fill="#D9D9D9"/>
<path d="M47.6317 126.241C48.625 126.724 49.0648 127.933 48.6141 128.942L48.2061 129.855C47.7554 130.863 46.5848 131.289 45.5916 130.806L40.0577 128.113C39.0645 127.63 38.6246 126.421 39.0753 125.412L39.4834 124.5C39.9341 123.491 41.1046 123.065 42.0979 123.549L47.6317 126.241Z" fill="#D9D9D9"/>
<path d="M38.3715 154.483C39.4352 154.78 40.0749 155.889 39.8001 156.959L39.5514 157.927C39.2766 158.997 38.1915 159.623 37.1278 159.326L31.2487 157.682C30.1849 157.385 29.5452 156.277 29.82 155.207L30.0687 154.238C30.3435 153.168 31.4286 152.542 32.4924 152.839L38.3715 154.483Z" fill="#D9D9D9"/>
<path d="M32.8919 183.508C33.9919 183.608 34.8088 184.582 34.7165 185.683L34.633 186.679C34.5407 187.78 33.5741 188.591 32.4742 188.49L26.4213 187.938C25.3213 187.837 24.5044 186.864 24.5966 185.763L24.6802 184.766C24.7725 183.666 25.739 182.855 26.839 182.955L32.8919 183.508Z" fill="#D9D9D9"/>
<path d="M26.839 216.436C25.739 216.536 24.7725 215.725 24.6802 214.625L24.5966 213.628C24.5043 212.528 25.3212 211.554 26.4212 211.453L32.4741 210.901C33.5741 210.801 34.5407 211.611 34.633 212.712L34.7165 213.709C34.8088 214.809 33.9919 215.783 32.8919 215.883L26.839 216.436Z" fill="#D9D9D9"/>
<path d="M31.8208 247.614C30.757 247.911 29.6719 247.285 29.3972 246.215L29.1484 245.247C28.8737 244.177 29.5133 243.069 30.5771 242.771L36.4562 241.128C37.52 240.83 38.6051 241.456 38.8798 242.526L39.1286 243.495C39.4033 244.565 38.7637 245.673 37.6999 245.97L31.8208 247.614Z" fill="#D9D9D9"/>
<path d="M42.0979 277.411C41.1046 277.894 39.9341 277.468 39.4834 276.46L39.0754 275.547C38.6247 274.538 39.0645 273.329 40.0577 272.846L45.5916 270.154C46.5849 269.67 47.7554 270.096 48.2061 271.105L48.6141 272.018C49.0648 273.026 48.625 274.235 47.6318 274.718L42.0979 277.411Z" fill="#D9D9D9"/>
<path d="M56.9947 303.735C56.1028 304.387 54.8808 304.172 54.2653 303.254L53.708 302.424C53.0925 301.507 53.3165 300.235 54.2085 299.584L59.2313 295.914C60.1232 295.262 61.3452 295.478 61.9607 296.395L62.518 297.225C63.1335 298.142 62.9094 299.414 62.0175 300.066L56.9947 303.735Z" fill="#D9D9D9"/>
<path d="M77.1821 327.297C76.4178 328.095 75.1786 328.095 74.4143 327.297L73.7224 326.576C72.9581 325.778 72.9581 324.485 73.7224 323.688L78.0785 319.143C78.8428 318.345 80.082 318.345 80.8463 319.143L81.5382 319.865C82.3025 320.662 82.3025 321.955 81.5382 322.752L77.1821 327.297Z" fill="#D9D9D9"/>
<path d="M99.3027 347.403C98.6872 348.32 97.4652 348.536 96.5733 347.884L95.7658 347.294C94.8739 346.643 94.6499 345.371 95.2654 344.454L98.815 339.164C99.4305 338.247 100.653 338.032 101.544 338.684L102.352 339.273C103.244 339.925 103.468 341.197 102.852 342.114L99.3027 347.403Z" fill="#D9D9D9"/>
<path d="M125.374 362.655C124.923 363.663 123.753 364.089 122.759 363.606L121.86 363.168C120.867 362.685 120.427 361.476 120.878 360.467L123.503 354.592C123.954 353.584 125.125 353.158 126.118 353.642L127.017 354.079C128.01 354.562 128.45 355.772 128 356.78L125.374 362.655Z" fill="#D9D9D9"/>
<path d="M153.385 373.756C153.11 374.826 152.025 375.452 150.961 375.155L149.998 374.885C148.934 374.588 148.295 373.48 148.569 372.41L150.182 366.131C150.457 365.061 151.542 364.435 152.606 364.732L153.569 365.001C154.632 365.299 155.272 366.407 154.997 367.477L153.385 373.756Z" fill="#D9D9D9"/>
<rect width="5" height="20.5149" rx="2" transform="matrix(-0.6267 -0.779261 0.752394 -0.658713 64.9222 317.529)" fill="#D9D9D9"/>
<rect width="5" height="20.8082" rx="2" transform="matrix(-0.856589 -0.515999 0.48417 -0.874974 111.044 357.473)" fill="#D9D9D9"/>
<rect width="5" height="20.9974" rx="2" transform="matrix(-0.983495 -0.180937 0.166635 -0.986018 167.03 378.496)" fill="#D9D9D9"/>
<path d="M88.2008 337.782C87.5086 338.642 86.2737 338.75 85.4426 338.023L84.6902 337.364C83.8591 336.637 83.7466 335.349 84.4388 334.488L90.5665 326.869C91.2588 326.008 92.4936 325.9 93.3247 326.628L94.0771 327.286C94.9082 328.014 95.0207 329.302 94.3285 330.162L88.2008 337.782Z" fill="#D9D9D9"/>
<path d="M139.388 368.899C139.025 369.942 137.893 370.47 136.86 370.078L135.925 369.723C134.893 369.331 134.35 368.167 134.714 367.124L137.991 357.731C138.355 356.688 139.487 356.16 140.519 356.553L141.454 356.908C142.487 357.3 143.029 358.463 142.665 359.506L139.388 368.899Z" fill="#D9D9D9"/>
<path d="M77.1821 327.297C76.4178 328.095 75.1786 328.095 74.4143 327.297L73.7224 326.576C72.9581 325.778 72.9581 324.485 73.7224 323.688L78.0785 319.143C78.8428 318.345 80.082 318.345 80.8463 319.143L81.5382 319.865C82.3025 320.662 82.3025 321.955 81.5382 322.752L77.1821 327.297Z" fill="#D9D9D9"/>
<path d="M99.3027 347.403C98.6872 348.32 97.4652 348.536 96.5733 347.884L95.7658 347.294C94.8739 346.643 94.6499 345.371 95.2654 344.454L98.815 339.164C99.4305 338.247 100.653 338.032 101.544 338.684L102.352 339.273C103.244 339.925 103.468 341.197 102.852 342.114L99.3027 347.403Z" fill="#D9D9D9"/>
<path d="M125.374 362.655C124.923 363.663 123.753 364.089 122.759 363.606L121.86 363.168C120.867 362.685 120.427 361.476 120.878 360.467L123.503 354.592C123.954 353.584 125.125 353.158 126.118 353.642L127.017 354.079C128.01 354.562 128.45 355.772 128 356.78L125.374 362.655Z" fill="#D9D9D9"/>
<path d="M153.385 373.756C153.11 374.826 152.025 375.452 150.961 375.155L149.998 374.885C148.934 374.588 148.295 373.48 148.569 372.41L150.182 366.131C150.457 365.061 151.542 364.435 152.606 364.732L153.569 365.001C154.632 365.299 155.272 366.407 154.997 367.477L153.385 373.756Z" fill="#D9D9D9"/>
<path d="M155.5 33.0001L153.615 26.5001C153.615 26.5001 157.415 25.5 160.115 25.0001C162.815 24.5001 163.749 24.5 163.749 24.5L164.864 31C164.864 31 164.584 31.1014 162.115 31.5C159.115 31.9842 155.5 33.0001 155.5 33.0001Z" fill="#A01919"/>
<path d="M141.5 37.5002L139.5 31.0001C139.5 31.0001 142.5 29.9999 145.5 28.9999C148.5 27.9999 148.196 28.1838 148.196 28.1838L149.696 34.684C149.696 34.684 149.873 34.7091 147.5 35.4999C144.5 36.4999 141.5 37.5002 141.5 37.5002Z" fill="#A01919"/>
<path d="M141.5 37.5002L139.5 31.0001C139.5 31.0001 142.5 29.9999 145.5 28.9999C148.5 27.9999 148.196 28.1838 148.196 28.1838L149.696 34.684C149.696 34.684 149.873 34.7091 147.5 35.4999C144.5 36.4999 141.5 37.5002 141.5 37.5002Z" fill="#A01919"/>
<path d="M128.604 42.6418L126 36.5C126 36.5 128.273 35.1389 130.846 34.1786C133.418 33.2183 133.942 33.1315 133.942 33.1315L136.167 39.3398C136.167 39.3398 136.304 39.4132 133.942 40.2335C131.071 41.2304 128.604 42.6418 128.604 42.6418Z" fill="#A01919"/>
<path d="M115.298 49.6133L111.968 43.8166C111.968 43.8166 114.384 41.9093 117.165 40.4045C119.946 38.8998 120.665 38.8171 120.665 38.8171L123.269 44.9588C123.269 44.9588 122.865 45.2144 120.665 46.4045C117.884 47.9093 115.298 49.6133 115.298 49.6133Z" fill="#A01919"/>
<path d="M115.298 49.6133L111.968 43.8166C111.968 43.8166 114.384 41.9093 117.165 40.4045C119.946 38.8998 120.665 38.8171 120.665 38.8171L123.269 44.9588C123.269 44.9588 122.865 45.2144 120.665 46.4045C117.884 47.9093 115.298 49.6133 115.298 49.6133Z" fill="#A01919"/>
<path d="M103 57.4998L99.2816 51.9613C99.2816 51.9613 101.323 50.2567 103.667 48.8272C106.012 47.3978 106.801 47 106.801 47L110.16 52.6756C110.16 52.6756 110.018 52.935 107.853 54.1874C105.222 55.7091 103 57.4998 103 57.4998Z" fill="#A01919"/>
<path d="M91.7096 66.4608L87.3436 61.3984C87.3436 61.3984 89.2283 59.6054 91.6748 57.6018C94.1214 55.5983 94.5971 55.4548 94.5971 55.4548L98.3153 60.9933C98.3153 60.9933 98.1812 61.2471 96.2463 62.8317C93.7998 64.8353 91.7096 66.4608 91.7096 66.4608Z" fill="#A01919"/>
<path d="M91.7096 66.4608L87.3436 61.3984C87.3436 61.3984 89.2283 59.6054 91.6748 57.6018C94.1214 55.5983 94.5971 55.4548 94.5971 55.4548L98.3153 60.9933C98.3153 60.9933 98.1812 61.2471 96.2463 62.8317C93.7998 64.8353 91.7096 66.4608 91.7096 66.4608Z" fill="#A01919"/>
<path d="M81.3856 77L76.7471 72.2057C76.7471 72.2057 78.3226 70.0318 80.5 68C82.6774 65.9682 83.1344 65.5 83.1344 65.5L87.4434 70.4927C87.4434 70.4927 86.8794 71 85.191 72.6436C83.0135 74.7632 81.3856 77 81.3856 77Z" fill="#A01919"/>
<path d="M71.669 88.2112L66.4771 84C66.4771 84 68.0153 81.692 70.0693 79.2876C72.1233 76.8832 72.8615 76.4702 72.8615 76.4702L77.5 81.2645C77.5 81.2645 77.1175 81.7257 75.4931 83.6273C73.4391 86.0317 71.669 88.2112 71.669 88.2112Z" fill="#A01919"/>
<path d="M71.669 88.2112L66.4771 84C66.4771 84 68.0153 81.692 70.0693 79.2876C72.1233 76.8832 72.8615 76.4702 72.8615 76.4702L77.5 81.2645C77.5 81.2645 77.1175 81.7257 75.4931 83.6273C73.4391 86.0317 71.669 88.2112 71.669 88.2112Z" fill="#A01919"/>
<path d="M87.853 111.154C85.125 111.154 83.398 110.523 82.672 109.262C81.946 108.001 81.583 106.189 81.583 103.828C81.583 101.371 81.9827 99.4573 82.782 98.086C83.5887 96.7073 85.4073 96.018 88.238 96.018C90.768 96.018 92.396 96.5203 93.122 97.525C93.8553 98.5297 94.222 99.516 94.222 100.484H89.811C89.7743 99.8973 89.635 99.4867 89.393 99.252C89.1583 99.01 88.7733 98.889 88.238 98.889C87.5633 98.889 87.0207 99.1347 86.61 99.626C86.1993 100.117 85.994 101.672 85.994 104.29C85.994 106.204 86.1883 107.344 86.577 107.711C86.9657 108.07 87.4827 108.25 88.128 108.25C88.7807 108.25 89.2573 108.111 89.558 107.832C89.8587 107.553 90.009 106.934 90.009 105.973C90.009 104.946 89.8587 104.305 89.558 104.048C89.2573 103.791 88.788 103.663 88.15 103.663C87.5193 103.663 87.017 103.806 86.643 104.092C86.2763 104.371 86.049 104.726 85.961 105.159L83.893 104.224C83.959 103.608 84.542 102.926 85.642 102.178C86.7493 101.43 88.0987 101.056 89.69 101.056C91.5013 101.056 92.7517 101.474 93.441 102.31C94.1303 103.146 94.475 104.286 94.475 105.731C94.475 107.242 94.079 108.525 93.287 109.581C92.5023 110.63 90.691 111.154 87.853 111.154Z" fill="white"/>
<path d="M64.721 155.154C62.389 155.154 60.783 154.674 59.903 153.713C59.0303 152.752 58.594 151.619 58.594 150.314H62.983C62.9977 151.187 63.1737 151.726 63.511 151.931C63.8483 152.136 64.325 152.239 64.941 152.239C65.5643 152.239 66.041 152.111 66.371 151.854C66.701 151.59 66.866 150.908 66.866 149.808C66.866 148.862 66.701 148.268 66.371 148.026C66.041 147.777 65.5753 147.652 64.974 147.652C64.3727 147.652 63.896 147.755 63.544 147.96C63.1993 148.158 63.0123 148.437 62.983 148.796L60.552 148.708C60.6913 147.417 61.377 146.475 62.609 145.881C63.841 145.28 65.194 144.979 66.668 144.979C68.3693 144.979 69.572 145.404 70.276 146.255C70.9873 147.106 71.343 148.264 71.343 149.731C71.343 151.388 70.8993 152.708 70.012 153.691C69.1247 154.666 67.361 155.154 64.721 155.154ZM58.594 148.796V140.15H70.936V143.142H62.983V148.796H58.594Z" fill="white"/>
<path d="M56.447 206V202.964H49.473V200.093L54.335 191.15H60.825V200.148H62.64V202.964H60.825V206H56.447ZM53.851 200.148H56.447V194.252H56.414L53.851 200.148Z" fill="white"/>
<path d="M65.183 261.176C62.543 261.176 60.8013 260.67 59.958 259.658C59.1147 258.646 58.693 257.399 58.693 255.918H63.071C63.071 256.959 63.2617 257.605 63.643 257.854C64.0243 258.096 64.5487 258.217 65.216 258.217C65.8687 258.217 66.371 258.107 66.723 257.887C67.0823 257.66 67.262 257.084 67.262 256.16C67.262 255.705 67.0603 255.394 66.657 255.225C66.261 255.049 65.5387 254.957 64.49 254.95V252.244C65.5387 252.237 66.261 252.141 66.657 251.958C67.0603 251.775 67.262 251.456 67.262 251.001C67.262 250.062 67.0823 249.49 66.723 249.285C66.3637 249.072 65.8613 248.966 65.216 248.966C64.534 248.966 64.006 249.094 63.632 249.351C63.258 249.6 63.071 250.282 63.071 251.397H58.693C58.693 249.908 59.1147 248.64 59.958 247.591C60.8087 246.542 62.554 246.018 65.194 246.018C67.9367 246.018 69.6967 246.44 70.474 247.283C71.2513 248.119 71.64 249.127 71.64 250.308C71.64 251.188 71.3797 251.936 70.859 252.552C70.3457 253.168 69.4803 253.498 68.263 253.542C69.4803 253.579 70.3457 253.898 70.859 254.499C71.3797 255.093 71.64 255.823 71.64 256.688C71.64 257.898 71.2513 258.95 70.474 259.845C69.6967 260.732 67.933 261.176 65.183 261.176Z" fill="white"/>
<path d="M171.93 355.176C169.789 355.176 168.201 354.82 167.167 354.109C166.133 353.398 165.616 352.272 165.616 350.732V344.451C165.616 342.918 166.133 341.796 167.167 341.085C168.208 340.374 169.796 340.018 171.93 340.018C174.064 340.018 175.648 340.374 176.682 341.085C177.716 341.796 178.233 342.918 178.233 344.451V350.732C178.233 352.272 177.716 353.398 176.682 354.109C175.648 354.82 174.064 355.176 171.93 355.176ZM171.93 352.162C172.59 352.162 173.067 352.034 173.36 351.777C173.661 351.52 173.811 351.11 173.811 350.545V344.638C173.811 344.073 173.664 343.666 173.371 343.417C173.078 343.16 172.597 343.032 171.93 343.032C171.233 343.032 170.742 343.157 170.456 343.406C170.17 343.655 170.027 344.066 170.027 344.638V350.545C170.027 351.117 170.17 351.531 170.456 351.788C170.742 352.037 171.233 352.162 171.93 352.162Z" fill="white"/>
<path d="M123.827 79C123.827 76.646 124.3 74.446 125.246 72.4C126.192 70.3467 127.406 68.6123 128.887 67.197L128.898 67.142H121.275V64.15H133.606V67.131C132.073 68.847 130.849 70.684 129.932 72.642C129.023 74.6 128.575 76.7193 128.59 79H123.827Z" fill="white"/>
<path d="M174.062 63.176C171.459 63.176 169.75 62.67 168.936 61.658C168.122 60.646 167.715 59.4837 167.715 58.171C167.715 56.851 168.291 55.8537 169.442 55.179C170.593 54.497 172.133 54.156 174.062 54.156C175.991 54.156 177.523 54.497 178.66 55.179C179.804 55.861 180.376 56.8583 180.376 58.171C180.376 59.4837 179.936 60.646 179.056 61.658C178.183 62.67 176.519 63.176 174.062 63.176ZM174.051 60.217C174.696 60.217 175.18 60.0887 175.503 59.832C175.833 59.5753 175.998 59.0657 175.998 58.303C175.998 57.5037 175.833 56.9903 175.503 56.763C175.173 56.5283 174.689 56.411 174.051 56.411C173.42 56.411 172.936 56.5283 172.599 56.763C172.262 56.9903 172.093 57.5037 172.093 58.303C172.093 59.0657 172.258 59.5753 172.588 59.832C172.918 60.0887 173.406 60.217 174.051 60.217ZM174.062 56.026C172.111 56.026 170.601 55.7363 169.53 55.157C168.467 54.5703 167.935 53.6353 167.935 52.352C167.935 51.2593 168.331 50.2657 169.123 49.371C169.922 48.469 171.569 48.018 174.062 48.018C176.423 48.018 178.029 48.469 178.88 49.371C179.731 50.2657 180.156 51.2593 180.156 52.352C180.156 53.628 179.628 54.5593 178.572 55.146C177.516 55.7327 176.013 56.026 174.062 56.026ZM174.051 53.87C174.682 53.87 175.151 53.7673 175.459 53.562C175.767 53.3493 175.921 52.9203 175.921 52.275C175.921 51.791 175.76 51.4427 175.437 51.23C175.122 51.01 174.66 50.9 174.051 50.9C173.442 50.9 172.977 51.01 172.654 51.23C172.331 51.4427 172.17 51.791 172.17 52.275C172.17 52.9203 172.324 53.3493 172.632 53.562C172.947 53.7673 173.42 53.87 174.051 53.87Z" fill="white"/>
<path d="M123.726 340V336.997H127.554V328.681L123.649 329.726V326.514L128.291 325.128H131.943V336.997H135.65V340H123.726Z" fill="white"/>
<path d="M83.803 306V303.437C83.803 302.366 84.2027 301.442 85.002 300.665C85.8087 299.888 87.0407 299.147 88.698 298.443C90.2747 297.79 91.239 297.295 91.591 296.958C91.943 296.621 92.119 296.181 92.119 295.638C92.119 294.978 91.9687 294.545 91.668 294.34C91.3673 294.135 90.9237 294.032 90.337 294.032C89.6477 294.032 89.1087 294.175 88.72 294.461C88.3387 294.74 88.148 295.348 88.148 296.287H83.759C83.759 294.93 84.1843 293.713 85.035 292.635C85.893 291.557 87.6603 291.018 90.337 291.018C93.0723 291.018 94.792 291.517 95.496 292.514C96.2 293.504 96.552 294.523 96.552 295.572C96.552 296.819 96.112 297.845 95.232 298.652C94.3593 299.451 93.2373 300.196 91.866 300.885C90.678 301.42 89.809 301.838 89.259 302.139C88.7163 302.44 88.445 302.726 88.445 302.997H96.53V306H83.803Z" fill="white"/>
<path d="M196.025 344C195.592 344 195.375 343.858 195.375 343.575C195.375 343.508 195.392 343.433 195.425 343.35C195.475 343.25 195.525 343.15 195.575 343.05L198.525 337.275L195.8 331.825C195.7 331.625 195.65 331.458 195.65 331.325C195.65 331.158 195.733 331.042 195.9 330.975C196.083 330.908 196.375 330.875 196.775 330.875H197.225C197.492 330.875 197.725 330.9 197.925 330.95C198.125 330.983 198.258 331.1 198.325 331.3L200.125 335.475L201.85 331.325C201.933 331.108 202.075 330.983 202.275 330.95C202.475 330.9 202.708 330.875 202.975 330.875H203.375C203.775 330.875 204.058 330.917 204.225 331C204.392 331.067 204.475 331.175 204.475 331.325C204.475 331.442 204.417 331.608 204.3 331.825L201.575 337.35L204.525 343.05C204.658 343.283 204.725 343.467 204.725 343.6C204.725 343.867 204.508 344 204.075 344H203.125C202.858 344 202.625 343.975 202.425 343.925C202.225 343.875 202.075 343.717 201.975 343.45L200 339.025L198.05 343.45C197.95 343.717 197.8 343.875 197.6 343.925C197.4 343.975 197.167 344 196.9 344H196.025ZM206.757 344C206.374 344 206.182 343.7 206.182 343.1V342.775C206.182 342.175 206.374 341.875 206.757 341.875H209.882V329.05L206.657 329.575C206.341 329.625 206.132 329.5 206.032 329.2C205.949 328.9 205.907 328.608 205.907 328.325C205.907 328.042 205.949 327.85 206.032 327.75C206.116 327.65 206.249 327.575 206.432 327.525L211.632 326.425C211.816 326.425 211.999 326.492 212.182 326.625C212.366 326.742 212.457 326.883 212.457 327.05V341.875H215.132C215.516 341.875 215.707 342.175 215.707 342.775V343.1C215.707 343.7 215.516 344 215.132 344H206.757ZM222.701 344.175C221.217 344.175 220.026 343.458 219.126 342.025C218.226 340.592 217.776 338.333 217.776 335.25C217.776 332.167 218.226 329.908 219.126 328.475C220.026 327.042 221.217 326.325 222.701 326.325C224.201 326.325 225.401 327.042 226.301 328.475C227.217 329.908 227.676 332.167 227.676 335.25C227.676 338.333 227.217 340.592 226.301 342.025C225.401 343.458 224.201 344.175 222.701 344.175ZM222.726 342.05C223.159 342.05 223.542 341.85 223.876 341.45C224.226 341.05 224.501 340.358 224.701 339.375C224.917 338.375 225.026 337 225.026 335.25C225.026 333.5 224.917 332.133 224.701 331.15C224.501 330.15 224.226 329.45 223.876 329.05C223.542 328.65 223.159 328.45 222.726 328.45C222.292 328.45 221.901 328.65 221.551 329.05C221.217 329.45 220.951 330.15 220.751 331.15C220.551 332.133 220.451 333.5 220.451 335.25C220.451 337 220.551 338.375 220.751 339.375C220.951 340.358 221.217 341.05 221.551 341.45C221.901 341.85 222.292 342.05 222.726 342.05ZM234.444 344.175C232.96 344.175 231.769 343.458 230.869 342.025C229.969 340.592 229.519 338.333 229.519 335.25C229.519 332.167 229.969 329.908 230.869 328.475C231.769 327.042 232.96 326.325 234.444 326.325C235.944 326.325 237.144 327.042 238.044 328.475C238.96 329.908 239.419 332.167 239.419 335.25C239.419 338.333 238.96 340.592 238.044 342.025C237.144 343.458 235.944 344.175 234.444 344.175ZM234.469 342.05C234.902 342.05 235.285 341.85 235.619 341.45C235.969 341.05 236.244 340.358 236.444 339.375C236.66 338.375 236.769 337 236.769 335.25C236.769 333.5 236.66 332.133 236.444 331.15C236.244 330.15 235.969 329.45 235.619 329.05C235.285 328.65 234.902 328.45 234.469 328.45C234.035 328.45 233.644 328.65 233.294 329.05C232.96 329.45 232.694 330.15 232.494 331.15C232.294 332.133 232.194 333.5 232.194 335.25C232.194 337 232.294 338.375 232.494 339.375C232.694 340.358 232.96 341.05 233.294 341.45C233.644 341.85 234.035 342.05 234.469 342.05ZM246.187 344.175C244.704 344.175 243.512 343.458 242.612 342.025C241.712 340.592 241.262 338.333 241.262 335.25C241.262 332.167 241.712 329.908 242.612 328.475C243.512 327.042 244.704 326.325 246.187 326.325C247.687 326.325 248.887 327.042 249.787 328.475C250.704 329.908 251.162 332.167 251.162 335.25C251.162 338.333 250.704 340.592 249.787 342.025C248.887 343.458 247.687 344.175 246.187 344.175ZM246.212 342.05C246.645 342.05 247.029 341.85 247.362 341.45C247.712 341.05 247.987 340.358 248.187 339.375C248.404 338.375 248.512 337 248.512 335.25C248.512 333.5 248.404 332.133 248.187 331.15C247.987 330.15 247.712 329.45 247.362 329.05C247.029 328.65 246.645 328.45 246.212 328.45C245.779 328.45 245.387 328.65 245.037 329.05C244.704 329.45 244.437 330.15 244.237 331.15C244.037 332.133 243.937 333.5 243.937 335.25C243.937 337 244.037 338.375 244.237 339.375C244.437 340.358 244.704 341.05 245.037 341.45C245.387 341.85 245.779 342.05 246.212 342.05ZM254.805 344.05C254.038 344.05 253.655 343.842 253.655 343.425V334.85C253.655 333.8 253.613 333.042 253.53 332.575C253.447 332.092 253.405 331.75 253.405 331.55C253.405 331.4 253.513 331.283 253.73 331.2C253.963 331.1 254.222 331.033 254.505 331C254.805 330.967 255.038 330.95 255.205 330.95C255.455 330.95 255.63 331.075 255.73 331.325C255.83 331.558 255.947 332.017 256.08 332.7C256.43 332.117 256.872 331.65 257.405 331.3C257.955 330.933 258.48 330.75 258.98 330.75C259.297 330.75 259.505 330.825 259.605 330.975C259.722 331.125 259.78 331.35 259.78 331.65C259.78 331.883 259.755 332.142 259.705 332.425C259.655 332.692 259.58 332.925 259.48 333.125C259.397 333.325 259.288 333.425 259.155 333.425C259.022 333.425 258.872 333.4 258.705 333.35C258.555 333.283 258.33 333.25 258.03 333.25C257.63 333.25 257.263 333.367 256.93 333.6C256.613 333.833 256.388 334.133 256.255 334.5V343.425C256.255 343.842 255.863 344.05 255.08 344.05H254.805ZM260.628 345.925C260.078 345.925 259.803 345.792 259.803 345.525C259.803 345.442 259.828 345.317 259.878 345.15C259.945 345 260.003 344.833 260.053 344.65L265.603 326.9C265.67 326.717 265.77 326.592 265.903 326.525C266.053 326.458 266.278 326.425 266.578 326.425H266.728C267.278 326.425 267.553 326.55 267.553 326.8C267.553 326.883 267.52 327.008 267.453 327.175C267.403 327.342 267.353 327.517 267.303 327.7L261.753 345.45C261.686 345.633 261.578 345.758 261.428 345.825C261.295 345.892 261.078 345.925 260.778 345.925H260.628ZM274.018 344.05C273.602 344.05 273.31 344 273.143 343.9C272.977 343.783 272.893 343.625 272.893 343.425V334.85C272.893 333.8 272.852 333.042 272.768 332.575C272.685 332.092 272.643 331.75 272.643 331.55C272.643 331.4 272.76 331.283 272.993 331.2C273.227 331.1 273.493 331.033 273.793 331C274.093 330.967 274.327 330.95 274.493 330.95C274.743 330.95 274.91 331.075 274.993 331.325C275.093 331.558 275.21 332 275.343 332.65C275.727 332.1 276.185 331.65 276.718 331.3C277.252 330.933 277.86 330.75 278.543 330.75C279.16 330.75 279.743 330.908 280.293 331.225C280.843 331.525 281.227 332.033 281.443 332.75C281.81 332.183 282.268 331.708 282.818 331.325C283.368 330.942 283.993 330.75 284.693 330.75C285.56 330.75 286.293 331.025 286.893 331.575C287.51 332.125 287.818 333 287.818 334.2V343.425C287.818 343.625 287.727 343.783 287.543 343.9C287.377 344 287.093 344.05 286.693 344.05H286.343C285.927 344.05 285.627 344 285.443 343.9C285.277 343.783 285.193 343.625 285.193 343.425V334.725C285.193 334.158 285.068 333.725 284.818 333.425C284.585 333.108 284.21 332.95 283.693 332.95C283.227 332.95 282.81 333.108 282.443 333.425C282.093 333.725 281.827 334.05 281.643 334.4C281.643 334.45 281.643 334.525 281.643 334.625V343.425C281.643 343.625 281.56 343.783 281.393 343.9C281.227 344 280.935 344.05 280.518 344.05H280.168C279.752 344.05 279.46 344 279.293 343.9C279.127 343.783 279.043 343.625 279.043 343.425V334.725C279.043 334.158 278.918 333.725 278.668 333.425C278.435 333.108 278.06 332.95 277.543 332.95C277.193 332.95 276.877 333.033 276.593 333.2C276.327 333.367 276.093 333.567 275.893 333.8C275.71 334.033 275.577 334.242 275.493 334.425V343.425C275.493 343.625 275.41 343.783 275.243 343.9C275.077 344 274.785 344.05 274.368 344.05H274.018ZM292.012 344.05C291.595 344.05 291.303 344 291.137 343.9C290.97 343.783 290.887 343.625 290.887 343.425V331.5C290.887 331.3 290.97 331.15 291.137 331.05C291.303 330.933 291.595 330.875 292.012 330.875H292.362C292.778 330.875 293.07 330.933 293.237 331.05C293.403 331.15 293.487 331.3 293.487 331.5V343.425C293.487 343.625 293.403 343.783 293.237 343.9C293.07 344 292.778 344.05 292.362 344.05H292.012ZM292.212 329.275C291.728 329.275 291.387 329.225 291.187 329.125C290.987 329.008 290.887 328.85 290.887 328.65V327.025C290.887 326.825 290.987 326.675 291.187 326.575C291.387 326.458 291.728 326.4 292.212 326.4C292.678 326.4 293.012 326.458 293.212 326.575C293.412 326.675 293.512 326.825 293.512 327.025V328.65C293.512 328.85 293.412 329.008 293.212 329.125C293.012 329.225 292.678 329.275 292.212 329.275ZM297.773 344.05C297.357 344.05 297.065 344 296.898 343.9C296.732 343.783 296.648 343.625 296.648 343.425V334.85C296.648 333.8 296.607 333.042 296.523 332.575C296.44 332.092 296.398 331.75 296.398 331.55C296.398 331.4 296.515 331.283 296.748 331.2C296.982 331.1 297.248 331.033 297.548 331C297.848 330.967 298.082 330.95 298.248 330.95C298.498 330.95 298.665 331.075 298.748 331.325C298.848 331.558 298.965 332 299.098 332.65C299.498 332.1 299.982 331.65 300.548 331.3C301.115 330.933 301.748 330.75 302.448 330.75C303.348 330.75 304.115 331.025 304.748 331.575C305.382 332.125 305.698 333 305.698 334.2V343.425C305.698 343.625 305.607 343.783 305.423 343.9C305.257 344 304.973 344.05 304.573 344.05H304.223C303.807 344.05 303.507 344 303.323 343.9C303.157 343.783 303.073 343.625 303.073 343.425V334.725C303.073 334.158 302.94 333.725 302.673 333.425C302.423 333.108 302.007 332.95 301.423 332.95C301.057 332.95 300.723 333.033 300.423 333.2C300.123 333.367 299.873 333.567 299.673 333.8C299.473 334.033 299.332 334.242 299.248 334.425V343.425C299.248 343.625 299.165 343.783 298.998 343.9C298.832 344 298.54 344.05 298.123 344.05H297.773Z" fill="#C07C2E"/>
</svg>
