<svg width="400" height="400" viewBox="0 0 400 400" fill="none" xmlns="http://www.w3.org/2000/svg">
<circle cx="200" cy="200" r="193.5" fill="#444444" stroke="#353535" stroke-width="13"/>
<path d="M179.188 319.375H147.938C147.078 319.375 146.375 320.078 146.375 320.938V324.062C146.375 324.922 147.078 325.625 147.938 325.625H179.188C180.047 325.625 180.75 324.922 180.75 324.062V320.938C180.75 320.078 180.047 319.375 179.188 319.375ZM194.539 286.104L186.629 278.193C186.023 277.588 185.027 277.588 184.422 278.193L183.318 279.297C182.713 279.902 182.713 280.898 183.318 281.504L187 285.186V291.25C187 293.994 189.041 296.26 191.688 296.641V312.344C191.688 313.633 190.633 314.688 189.344 314.688C188.055 314.688 187 313.633 187 312.344V309.219C187 304.473 183.152 300.625 178.406 300.625H177.625V281.875C177.625 278.428 174.822 275.625 171.375 275.625H155.75C152.303 275.625 149.5 278.428 149.5 281.875V316.25H177.625V305.312H178.406C180.564 305.312 182.312 307.061 182.312 309.219V311.934C182.312 315.615 184.949 318.965 188.611 319.346C192.811 319.766 196.375 316.465 196.375 312.344V290.527C196.375 288.867 195.711 287.275 194.539 286.104ZM171.375 294.375H155.75V281.875H171.375V294.375Z" fill="#B1B1B1"/>
<rect width="5" height="20.9974" rx="2" transform="matrix(0.983495 -0.180937 0.166635 0.986018 229.937 357.334)" fill="#A01919"/>
<rect width="5" height="20.8082" rx="2" transform="matrix(0.856589 -0.515999 0.48417 0.874974 281.362 339.099)" fill="#A01919"/>
<rect width="5" height="20.5149" rx="2" transform="matrix(0.6267 -0.779261 0.752394 0.658713 322.123 303.919)" fill="white"/>
<rect width="5" height="20.2535" rx="2" transform="matrix(0.329376 -0.944199 0.93486 0.355017 348.782 255.23)" fill="#D9D9D9"/>
<rect x="378.48" y="199.295" width="5" height="20.1494" rx="2" transform="rotate(90 378.48 199.295)" fill="#D9D9D9"/>
<rect width="5" height="20.2535" rx="2" transform="matrix(0.329376 0.944199 -0.93486 0.355017 367.716 136.927)" fill="#D9D9D9"/>
<rect width="5" height="20.5149" rx="2" transform="matrix(0.6267 0.779261 -0.752394 0.658713 337.558 82.9672)" fill="#D9D9D9"/>
<rect width="5" height="20.8082" rx="2" transform="matrix(0.856589 0.515999 -0.48417 0.874974 291.436 43.0232)" fill="#D9D9D9"/>
<rect width="5" height="20.9974" rx="2" transform="matrix(0.983495 0.180937 -0.166635 0.986018 235.451 22)" fill="#D9D9D9"/>
<path d="M259.815 358.876C259.451 357.833 259.993 356.669 261.026 356.277L261.961 355.922C262.993 355.53 264.125 356.058 264.489 357.101L267.766 366.494C268.13 367.537 267.588 368.7 266.555 369.093L265.62 369.448C264.588 369.84 263.456 369.312 263.092 368.269L259.815 358.876Z" fill="#A01919"/>
<path d="M308.436 330.446C307.744 329.586 307.856 328.298 308.687 327.571L309.44 326.912C310.271 326.184 311.506 326.292 312.198 327.153L318.326 334.772C319.018 335.633 318.905 336.921 318.074 337.648L317.322 338.307C316.491 339.035 315.256 338.927 314.564 338.066L308.436 330.446Z" fill="white"/>
<path d="M344.992 285.681C344.046 285.111 343.713 283.865 344.247 282.899L344.732 282.024C345.266 281.057 346.467 280.736 347.413 281.306L355.62 286.25C356.566 286.819 356.9 288.065 356.365 289.031L355.881 289.906C355.346 290.873 354.145 291.194 353.199 290.624L344.992 285.681Z" fill="#D9D9D9"/>
<path d="M374.148 167.422C375.235 167.222 376.265 167.943 376.449 169.032L376.615 170.018C376.799 171.107 376.068 172.152 374.982 172.352L365.687 174.062C364.6 174.262 363.57 173.541 363.386 172.452L363.22 171.466C363.036 170.376 363.767 169.332 364.854 169.132L374.148 167.422Z" fill="#D9D9D9"/>
<path d="M314.279 62.7145C314.972 61.8537 316.207 61.7458 317.038 62.4734L317.79 63.1321C318.621 63.8597 318.734 65.1473 318.041 66.008L311.914 73.6274C311.221 74.4882 309.987 74.5961 309.156 73.8685L308.403 73.2098C307.572 72.4822 307.46 71.1946 308.152 70.3339L314.279 62.7145Z" fill="#D9D9D9"/>
<path d="M364.853 230.459C363.767 230.259 363.036 229.215 363.22 228.125L363.386 227.139C363.57 226.05 364.6 225.329 365.687 225.529L374.981 227.239C376.068 227.439 376.799 228.484 376.615 229.573L376.449 230.559C376.265 231.648 375.235 232.369 374.148 232.169L364.853 230.459Z" fill="#D9D9D9"/>
<path d="M353.871 109.368C354.817 108.798 356.018 109.119 356.552 110.086L357.036 110.961C357.571 111.927 357.238 113.173 356.292 113.743L348.085 118.686C347.139 119.256 345.938 118.935 345.403 117.969L344.919 117.094C344.384 116.127 344.718 114.882 345.664 114.312L353.871 109.368Z" fill="#D9D9D9"/>
<path d="M263.092 31.5968C263.456 30.5539 264.588 30.0263 265.62 30.4185L266.555 30.7735C267.588 31.1656 268.13 32.329 267.766 33.3719L264.489 42.7653C264.125 43.8083 262.993 44.3358 261.961 43.9437L261.026 43.5887C259.993 43.1965 259.451 42.0332 259.815 40.9902L263.092 31.5968Z" fill="#D9D9D9"/>
<rect width="5" height="20.5149" rx="2" transform="matrix(0.6267 0.779261 -0.752394 0.658713 337.558 82.9672)" fill="#D9D9D9"/>
<rect width="5" height="20.8082" rx="2" transform="matrix(0.856589 0.515999 -0.48417 0.874974 291.436 43.0232)" fill="#D9D9D9"/>
<rect width="5" height="20.9974" rx="2" transform="matrix(0.983495 0.180937 -0.166635 0.986018 235.451 22)" fill="#D9D9D9"/>
<path d="M314.279 62.7145C314.972 61.8537 316.207 61.7458 317.038 62.4734L317.79 63.1321C318.621 63.8597 318.734 65.1473 318.041 66.008L311.914 73.6274C311.221 74.4882 309.987 74.5961 309.156 73.8685L308.403 73.2098C307.572 72.4822 307.46 71.1946 308.152 70.3339L314.279 62.7145Z" fill="#D9D9D9"/>
<path d="M263.092 31.5968C263.456 30.5539 264.588 30.0263 265.62 30.4185L266.555 30.7735C267.588 31.1656 268.13 32.329 267.766 33.3719L264.489 42.7653C264.125 43.8083 262.993 44.3358 261.961 43.9437L261.026 43.5887C259.993 43.1965 259.451 42.0332 259.815 40.9902L263.092 31.5968Z" fill="#D9D9D9"/>
<path d="M221.208 349.897V326.272H239.268V331.05H228.295V335.705H238.41V340.255H228.295V345.12H239.268V349.897H221.208Z" fill="#A01919"/>
<path d="M225.085 75V51.375H242.077V56.1525H232.155V62.19H241.238V66.74H232.155V75H225.085Z" fill="white"/>
</svg>
