<svg width="550" height="550" viewBox="0 0 550 550" fill="none" xmlns="http://www.w3.org/2000/svg">
<circle cx="275" cy="275" r="268.5" fill="#444444" stroke="#353535" stroke-width="13"/>
<path d="M257.068 358.072C256.18 358.072 255.532 357.952 255.124 357.712C254.716 357.472 254.512 357.136 254.512 356.704V334.096C254.512 333.664 254.716 333.328 255.124 333.088C255.532 332.848 256.18 332.728 257.068 332.728H258.004C258.892 332.728 259.54 332.848 259.948 333.088C260.356 333.328 260.56 333.664 260.56 334.096V343.168H260.74L265.024 333.844C265.216 333.436 265.492 333.148 265.852 332.98C266.212 332.812 266.776 332.728 267.544 332.728H269.056C270.376 332.728 271.036 333.016 271.036 333.592C271.036 333.832 270.964 334.132 270.82 334.492L265.888 345.076L270.748 355.804C270.892 356.14 270.988 356.416 271.036 356.632C271.108 356.848 271.144 357.04 271.144 357.208C271.144 357.568 270.976 357.808 270.64 357.928C270.304 358.024 269.716 358.072 268.876 358.072H267.652C266.86 358.072 266.26 358.012 265.852 357.892C265.468 357.748 265.168 357.412 264.952 356.884L260.74 347.38H260.56V356.704C260.56 357.136 260.356 357.472 259.948 357.712C259.54 357.952 258.892 358.072 258.004 358.072H257.068ZM274.392 358.072C273.504 358.072 272.868 357.964 272.484 357.748C272.1 357.508 271.908 357.16 271.908 356.704V345.436C271.908 344.308 271.872 343.444 271.8 342.844C271.752 342.244 271.692 341.788 271.62 341.476C271.572 341.164 271.548 340.876 271.548 340.612C271.548 340.204 271.8 339.904 272.304 339.712C272.808 339.52 273.396 339.388 274.068 339.316C274.74 339.244 275.304 339.208 275.76 339.208C276.408 339.208 276.816 339.376 276.984 339.712C277.176 340.024 277.356 340.66 277.524 341.62C277.98 340.948 278.604 340.324 279.396 339.748C280.212 339.172 281.136 338.884 282.168 338.884C284.376 338.884 285.768 339.832 286.344 341.728C286.776 341.008 287.376 340.36 288.144 339.784C288.912 339.184 289.812 338.884 290.844 338.884C293.868 338.884 295.38 340.552 295.38 343.888V356.704C295.38 357.16 295.188 357.508 294.804 357.748C294.42 357.964 293.784 358.072 292.896 358.072H292.032C291.144 358.072 290.496 357.964 290.088 357.748C289.704 357.508 289.512 357.16 289.512 356.704V345.364C289.512 344.308 289.104 343.78 288.288 343.78C287.712 343.78 287.136 344.08 286.56 344.68V356.704C286.56 357.16 286.368 357.508 285.984 357.748C285.6 357.964 284.964 358.072 284.076 358.072H283.212C282.324 358.072 281.688 357.964 281.304 357.748C280.92 357.508 280.728 357.16 280.728 356.704V345.364C280.728 344.812 280.632 344.416 280.44 344.176C280.272 343.912 279.972 343.78 279.54 343.78C279.228 343.78 278.904 343.864 278.568 344.032C278.232 344.176 277.968 344.38 277.776 344.644V356.704C277.776 357.16 277.572 357.508 277.164 357.748C276.78 357.964 276.144 358.072 275.256 358.072H274.392Z" fill="#C07C2E"/>
<path d="M252.858 73V69.451H257.382V59.623L252.767 60.858V57.062L258.253 55.424H262.569V69.451H266.95V73H252.858ZM268.64 73V69.971C268.64 68.7057 269.113 67.6137 270.057 66.695C271.011 65.7763 272.467 64.901 274.425 64.069C276.289 63.2977 277.428 62.7127 277.844 62.314C278.26 61.9153 278.468 61.3953 278.468 60.754C278.468 59.974 278.291 59.4627 277.935 59.22C277.58 58.9773 277.056 58.856 276.362 58.856C275.548 58.856 274.911 59.025 274.451 59.363C274.001 59.6923 273.775 60.4117 273.775 61.521H268.588C268.588 59.9177 269.091 58.479 270.096 57.205C271.11 55.931 273.199 55.294 276.362 55.294C279.595 55.294 281.627 55.8833 282.459 57.062C283.291 58.232 283.707 59.4367 283.707 60.676C283.707 62.1493 283.187 63.3627 282.147 64.316C281.116 65.2607 279.79 66.1403 278.169 66.955C276.765 67.5877 275.738 68.0817 275.088 68.437C274.447 68.7923 274.126 69.1303 274.126 69.451H283.681V73H268.64ZM292.893 73.208C290.362 73.208 288.486 72.7877 287.264 71.947C286.042 71.1063 285.431 69.776 285.431 67.956V60.533C285.431 58.7217 286.042 57.3957 287.264 56.555C288.495 55.7143 290.371 55.294 292.893 55.294C295.415 55.294 297.287 55.7143 298.509 56.555C299.731 57.3957 300.342 58.7217 300.342 60.533V67.956C300.342 69.776 299.731 71.1063 298.509 71.947C297.287 72.7877 295.415 73.208 292.893 73.208ZM292.893 69.646C293.673 69.646 294.236 69.4943 294.583 69.191C294.938 68.8877 295.116 68.4023 295.116 67.735V60.754C295.116 60.0867 294.943 59.6057 294.596 59.311C294.249 59.0077 293.682 58.856 292.893 58.856C292.07 58.856 291.489 59.0033 291.151 59.298C290.813 59.5927 290.644 60.078 290.644 60.754V67.735C290.644 68.411 290.813 68.9007 291.151 69.204C291.489 69.4987 292.07 69.646 292.893 69.646Z" fill="white"/>
<path d="M93.19 395.208C90.6593 395.208 88.783 394.788 87.561 393.947C86.339 393.106 85.728 391.776 85.728 389.956V382.533C85.728 380.722 86.339 379.396 87.561 378.555C88.7917 377.714 90.668 377.294 93.19 377.294C95.712 377.294 97.584 377.714 98.806 378.555C100.028 379.396 100.639 380.722 100.639 382.533V389.956C100.639 391.776 100.028 393.106 98.806 393.947C97.584 394.788 95.712 395.208 93.19 395.208ZM93.19 391.646C93.97 391.646 94.5333 391.494 94.88 391.191C95.2353 390.888 95.413 390.402 95.413 389.735V382.754C95.413 382.087 95.2397 381.606 94.893 381.311C94.5463 381.008 93.9787 380.856 93.19 380.856C92.3667 380.856 91.786 381.003 91.448 381.298C91.11 381.593 90.941 382.078 90.941 382.754V389.735C90.941 390.411 91.11 390.901 91.448 391.204C91.786 391.499 92.3667 391.646 93.19 391.646Z" fill="white"/>
<path d="M63.9491 321V317.971C63.9491 316.706 64.4215 315.614 65.3661 314.695C66.3195 313.776 67.7755 312.901 69.7341 312.069C71.5975 311.298 72.7371 310.713 73.1531 310.314C73.5691 309.915 73.7771 309.395 73.7771 308.754C73.7771 307.974 73.5995 307.463 73.2441 307.22C72.8888 306.977 72.3645 306.856 71.6711 306.856C70.8565 306.856 70.2195 307.025 69.7601 307.363C69.3095 307.692 69.0841 308.412 69.0841 309.521H63.8971C63.8971 307.918 64.3998 306.479 65.4051 305.205C66.4191 303.931 68.5078 303.294 71.6711 303.294C74.9038 303.294 76.9361 303.883 77.7681 305.062C78.6001 306.232 79.0161 307.437 79.0161 308.676C79.0161 310.149 78.4961 311.363 77.4561 312.316C76.4248 313.261 75.0988 314.14 73.4781 314.955C72.0741 315.588 71.0471 316.082 70.3971 316.437C69.7558 316.792 69.4351 317.13 69.4351 317.451H78.9901V321H63.9491ZM88.2018 321.208C85.6712 321.208 83.7948 320.788 82.5728 319.947C81.3508 319.106 80.7398 317.776 80.7398 315.956V308.533C80.7398 306.722 81.3508 305.396 82.5728 304.555C83.8035 303.714 85.6798 303.294 88.2018 303.294C90.7238 303.294 92.5958 303.714 93.8178 304.555C95.0398 305.396 95.6508 306.722 95.6508 308.533V315.956C95.6508 317.776 95.0398 319.106 93.8178 319.947C92.5958 320.788 90.7238 321.208 88.2018 321.208ZM88.2018 317.646C88.9818 317.646 89.5452 317.494 89.8918 317.191C90.2472 316.888 90.4248 316.402 90.4248 315.735V308.754C90.4248 308.087 90.2515 307.606 89.9048 307.311C89.5582 307.008 88.9905 306.856 88.2018 306.856C87.3785 306.856 86.7978 307.003 86.4598 307.298C86.1218 307.593 85.9528 308.078 85.9528 308.754V315.735C85.9528 316.411 86.1218 316.901 86.4598 317.204C86.7978 317.499 87.3785 317.646 88.2018 317.646Z" fill="white"/>
<path d="M69.8011 247V243.412H61.5591V240.019L67.3051 229.45H74.9751V240.084H77.1201V243.412H74.9751V247H69.8011ZM66.7331 240.084H69.8011V233.116H69.7621L66.7331 240.084ZM86.0241 247.208C83.4934 247.208 81.6171 246.788 80.3951 245.947C79.1731 245.106 78.5621 243.776 78.5621 241.956V234.533C78.5621 232.722 79.1731 231.396 80.3951 230.555C81.6258 229.714 83.5021 229.294 86.0241 229.294C88.5461 229.294 90.4181 229.714 91.6401 230.555C92.8621 231.396 93.4731 232.722 93.4731 234.533V241.956C93.4731 243.776 92.8621 245.106 91.6401 245.947C90.4181 246.788 88.5461 247.208 86.0241 247.208ZM86.0241 243.646C86.8041 243.646 87.3674 243.494 87.7141 243.191C88.0694 242.888 88.2471 242.402 88.2471 241.735V234.754C88.2471 234.087 88.0738 233.606 87.7271 233.311C87.3804 233.008 86.8128 232.856 86.0241 232.856C85.2008 232.856 84.6201 233.003 84.2821 233.298C83.9441 233.593 83.7751 234.078 83.7751 234.754V241.735C83.7751 242.411 83.9441 242.901 84.2821 243.204C84.6201 243.499 85.2008 243.646 86.0241 243.646Z" fill="white"/>
<path d="M90.099 181.182C86.875 181.182 84.834 180.437 83.976 178.946C83.118 177.455 82.689 175.315 82.689 172.524C82.689 169.621 83.1613 167.359 84.106 165.738C85.0593 164.109 87.2087 163.294 90.554 163.294C93.544 163.294 95.468 163.888 96.326 165.075C97.1927 166.262 97.626 167.428 97.626 168.572H92.413C92.3697 167.879 92.205 167.393 91.919 167.116C91.6417 166.83 91.1867 166.687 90.554 166.687C89.7567 166.687 89.1153 166.977 88.63 167.558C88.1447 168.139 87.902 169.976 87.902 173.07C87.902 175.332 88.1317 176.68 88.591 177.113C89.0503 177.538 89.6613 177.75 90.424 177.75C91.1953 177.75 91.7587 177.585 92.114 177.256C92.4693 176.927 92.647 176.194 92.647 175.059C92.647 173.846 92.4693 173.087 92.114 172.784C91.7587 172.481 91.204 172.329 90.45 172.329C89.7047 172.329 89.111 172.498 88.669 172.836C88.2357 173.165 87.967 173.586 87.863 174.097L85.419 172.992C85.497 172.264 86.186 171.458 87.486 170.574C88.7947 169.69 90.3893 169.248 92.27 169.248C94.4107 169.248 95.8883 169.742 96.703 170.73C97.5177 171.718 97.925 173.066 97.925 174.773C97.925 176.558 97.457 178.075 96.521 179.323C95.5937 180.562 93.453 181.182 90.099 181.182ZM107.151 181.208C104.62 181.208 102.744 180.788 101.522 179.947C100.3 179.106 99.6889 177.776 99.6889 175.956V168.533C99.6889 166.722 100.3 165.396 101.522 164.555C102.753 163.714 104.629 163.294 107.151 163.294C109.673 163.294 111.545 163.714 112.767 164.555C113.989 165.396 114.6 166.722 114.6 168.533V175.956C114.6 177.776 113.989 179.106 112.767 179.947C111.545 180.788 109.673 181.208 107.151 181.208ZM107.151 177.646C107.931 177.646 108.494 177.494 108.841 177.191C109.196 176.888 109.374 176.402 109.374 175.735V168.754C109.374 168.087 109.201 167.606 108.854 167.311C108.507 167.008 107.94 166.856 107.151 166.856C106.328 166.856 105.747 167.003 105.409 167.298C105.071 167.593 104.902 168.078 104.902 168.754V175.735C104.902 176.411 105.071 176.901 105.409 177.204C105.747 177.499 106.328 177.646 107.151 177.646Z" fill="white"/>
<path d="M129.346 127.208C126.269 127.208 124.25 126.61 123.288 125.414C122.326 124.218 121.845 122.844 121.845 121.293C121.845 119.733 122.525 118.554 123.886 117.757C125.247 116.951 127.067 116.548 129.346 116.548C131.625 116.548 133.437 116.951 134.78 117.757C136.132 118.563 136.808 119.742 136.808 121.293C136.808 122.844 136.288 124.218 135.248 125.414C134.217 126.61 132.249 127.208 129.346 127.208ZM129.333 123.711C130.096 123.711 130.668 123.559 131.049 123.256C131.439 122.953 131.634 122.35 131.634 121.449C131.634 120.504 131.439 119.898 131.049 119.629C130.659 119.352 130.087 119.213 129.333 119.213C128.588 119.213 128.016 119.352 127.617 119.629C127.218 119.898 127.019 120.504 127.019 121.449C127.019 122.35 127.214 122.953 127.604 123.256C127.994 123.559 128.57 123.711 129.333 123.711ZM129.346 118.758C127.041 118.758 125.255 118.416 123.99 117.731C122.733 117.038 122.105 115.933 122.105 114.416C122.105 113.125 122.573 111.95 123.509 110.893C124.454 109.827 126.399 109.294 129.346 109.294C132.137 109.294 134.035 109.827 135.04 110.893C136.045 111.95 136.548 113.125 136.548 114.416C136.548 115.924 135.924 117.025 134.676 117.718C133.428 118.411 131.651 118.758 129.346 118.758ZM129.333 116.21C130.078 116.21 130.633 116.089 130.997 115.846C131.361 115.595 131.543 115.088 131.543 114.325C131.543 113.753 131.352 113.341 130.971 113.09C130.598 112.83 130.052 112.7 129.333 112.7C128.614 112.7 128.063 112.83 127.682 113.09C127.301 113.341 127.11 113.753 127.11 114.325C127.11 115.088 127.292 115.595 127.656 115.846C128.029 116.089 128.588 116.21 129.333 116.21ZM145.922 127.208C143.392 127.208 141.515 126.788 140.293 125.947C139.071 125.106 138.46 123.776 138.46 121.956V114.533C138.46 112.722 139.071 111.396 140.293 110.555C141.524 109.714 143.4 109.294 145.922 109.294C148.444 109.294 150.316 109.714 151.538 110.555C152.76 111.396 153.371 112.722 153.371 114.533V121.956C153.371 123.776 152.76 125.106 151.538 125.947C150.316 126.788 148.444 127.208 145.922 127.208ZM145.922 123.646C146.702 123.646 147.266 123.494 147.612 123.191C147.968 122.888 148.145 122.402 148.145 121.735V114.754C148.145 114.087 147.972 113.606 147.625 113.311C147.279 113.008 146.711 112.856 145.922 112.856C145.099 112.856 144.518 113.003 144.18 113.298C143.842 113.593 143.673 114.078 143.673 114.754V121.735C143.673 122.411 143.842 122.901 144.18 123.204C144.518 123.499 145.099 123.646 145.922 123.646Z" fill="white"/>
<path d="M178.858 86V82.451H183.382V72.623L178.767 73.858V70.062L184.253 68.424H188.569V82.451H192.95V86H178.858ZM201.881 86.208C199.351 86.208 197.474 85.7877 196.252 84.947C195.03 84.1063 194.419 82.776 194.419 80.956V73.533C194.419 71.7217 195.03 70.3957 196.252 69.555C197.483 68.7143 199.359 68.294 201.881 68.294C204.403 68.294 206.275 68.7143 207.497 69.555C208.719 70.3957 209.33 71.7217 209.33 73.533V80.956C209.33 82.776 208.719 84.1063 207.497 84.947C206.275 85.7877 204.403 86.208 201.881 86.208ZM201.881 82.646C202.661 82.646 203.225 82.4943 203.571 82.191C203.927 81.8877 204.104 81.4023 204.104 80.735V73.754C204.104 73.0867 203.931 72.6057 203.584 72.311C203.238 72.0077 202.67 71.856 201.881 71.856C201.058 71.856 200.477 72.0033 200.139 72.298C199.801 72.5927 199.632 73.078 199.632 73.754V80.735C199.632 81.411 199.801 81.9007 200.139 82.204C200.477 82.4987 201.058 82.646 201.881 82.646ZM218.512 86.208C215.982 86.208 214.105 85.7877 212.883 84.947C211.661 84.1063 211.05 82.776 211.05 80.956V73.533C211.05 71.7217 211.661 70.3957 212.883 69.555C214.114 68.7143 215.99 68.294 218.512 68.294C221.034 68.294 222.906 68.7143 224.128 69.555C225.35 70.3957 225.961 71.7217 225.961 73.533V80.956C225.961 82.776 225.35 84.1063 224.128 84.947C222.906 85.7877 221.034 86.208 218.512 86.208ZM218.512 82.646C219.292 82.646 219.856 82.4943 220.202 82.191C220.558 81.8877 220.735 81.4023 220.735 80.735V73.754C220.735 73.0867 220.562 72.6057 220.215 72.311C219.869 72.0077 219.301 71.856 218.512 71.856C217.689 71.856 217.108 72.0033 216.77 72.298C216.432 72.5927 216.263 73.078 216.263 73.754V80.735C216.263 81.411 216.432 81.9007 216.77 82.204C217.108 82.4987 217.689 82.646 218.512 82.646Z" fill="white"/>
<path d="M417.949 395V391.971C417.949 390.706 418.421 389.614 419.366 388.695C420.319 387.776 421.775 386.901 423.734 386.069C425.597 385.298 426.737 384.713 427.153 384.314C427.569 383.915 427.777 383.395 427.777 382.754C427.777 381.974 427.599 381.463 427.244 381.22C426.889 380.977 426.364 380.856 425.671 380.856C424.856 380.856 424.219 381.025 423.76 381.363C423.309 381.692 423.084 382.412 423.084 383.521H417.897C417.897 381.918 418.4 380.479 419.405 379.205C420.419 377.931 422.508 377.294 425.671 377.294C428.904 377.294 430.936 377.883 431.768 379.062C432.6 380.232 433.016 381.437 433.016 382.676C433.016 384.149 432.496 385.363 431.456 386.316C430.425 387.261 429.099 388.14 427.478 388.955C426.074 389.588 425.047 390.082 424.397 390.437C423.756 390.792 423.435 391.13 423.435 391.451H432.99V395H417.949ZM442.813 395V391.412H434.571V388.019L440.317 377.45H447.987V388.084H450.132V391.412H447.987V395H442.813ZM439.745 388.084H442.813V381.116H442.774L439.745 388.084ZM459.036 395.208C456.505 395.208 454.629 394.788 453.407 393.947C452.185 393.106 451.574 391.776 451.574 389.956V382.533C451.574 380.722 452.185 379.396 453.407 378.555C454.637 377.714 456.514 377.294 459.036 377.294C461.558 377.294 463.43 377.714 464.652 378.555C465.874 379.396 466.485 380.722 466.485 382.533V389.956C466.485 391.776 465.874 393.106 464.652 393.947C463.43 394.788 461.558 395.208 459.036 395.208ZM459.036 391.646C459.816 391.646 460.379 391.494 460.726 391.191C461.081 390.888 461.259 390.402 461.259 389.735V382.754C461.259 382.087 461.085 381.606 460.739 381.311C460.392 381.008 459.824 380.856 459.036 380.856C458.212 380.856 457.632 381.003 457.294 381.298C456.956 381.593 456.787 382.078 456.787 382.754V389.735C456.787 390.411 456.956 390.901 457.294 391.204C457.632 391.499 458.212 391.646 459.036 391.646Z" fill="white"/>
<path d="M439.949 321V317.971C439.949 316.706 440.421 315.614 441.366 314.695C442.319 313.776 443.775 312.901 445.734 312.069C447.597 311.298 448.737 310.713 449.153 310.314C449.569 309.915 449.777 309.395 449.777 308.754C449.777 307.974 449.599 307.463 449.244 307.22C448.889 306.977 448.364 306.856 447.671 306.856C446.856 306.856 446.219 307.025 445.76 307.363C445.309 307.692 445.084 308.412 445.084 309.521H439.897C439.897 307.918 440.4 306.479 441.405 305.205C442.419 303.931 444.508 303.294 447.671 303.294C450.904 303.294 452.936 303.883 453.768 305.062C454.6 306.232 455.016 307.437 455.016 308.676C455.016 310.149 454.496 311.363 453.456 312.316C452.425 313.261 451.099 314.14 449.478 314.955C448.074 315.588 447.047 316.082 446.397 316.437C445.756 316.792 445.435 317.13 445.435 317.451H454.99V321H439.949ZM456.961 321V317.971C456.961 316.706 457.433 315.614 458.378 314.695C459.331 313.776 460.787 312.901 462.746 312.069C464.609 311.298 465.749 310.713 466.165 310.314C466.581 309.915 466.789 309.395 466.789 308.754C466.789 307.974 466.611 307.463 466.256 307.22C465.9 306.977 465.376 306.856 464.683 306.856C463.868 306.856 463.231 307.025 462.772 307.363C462.321 307.692 462.096 308.412 462.096 309.521H456.909C456.909 307.918 457.411 306.479 458.417 305.205C459.431 303.931 461.519 303.294 464.683 303.294C467.915 303.294 469.948 303.883 470.78 305.062C471.612 306.232 472.028 307.437 472.028 308.676C472.028 310.149 471.508 311.363 470.468 312.316C469.436 313.261 468.11 314.14 466.49 314.955C465.086 315.588 464.059 316.082 463.409 316.437C462.767 316.792 462.447 317.13 462.447 317.451H472.002V321H456.961ZM481.213 321.208C478.683 321.208 476.806 320.788 475.584 319.947C474.362 319.106 473.751 317.776 473.751 315.956V308.533C473.751 306.722 474.362 305.396 475.584 304.555C476.815 303.714 478.691 303.294 481.213 303.294C483.735 303.294 485.607 303.714 486.829 304.555C488.051 305.396 488.662 306.722 488.662 308.533V315.956C488.662 317.776 488.051 319.106 486.829 319.947C485.607 320.788 483.735 321.208 481.213 321.208ZM481.213 317.646C481.993 317.646 482.557 317.494 482.903 317.191C483.259 316.888 483.436 316.402 483.436 315.735V308.754C483.436 308.087 483.263 307.606 482.916 307.311C482.57 307.008 482.002 306.856 481.213 306.856C480.39 306.856 479.809 307.003 479.471 307.298C479.133 307.593 478.964 308.078 478.964 308.754V315.735C478.964 316.411 479.133 316.901 479.471 317.204C479.809 317.499 480.39 317.646 481.213 317.646Z" fill="white"/>
<path d="M441.949 247V243.971C441.949 242.706 442.421 241.614 443.366 240.695C444.319 239.776 445.775 238.901 447.734 238.069C449.597 237.298 450.737 236.713 451.153 236.314C451.569 235.915 451.777 235.395 451.777 234.754C451.777 233.974 451.599 233.463 451.244 233.22C450.889 232.977 450.364 232.856 449.671 232.856C448.856 232.856 448.219 233.025 447.76 233.363C447.309 233.692 447.084 234.412 447.084 235.521H441.897C441.897 233.918 442.4 232.479 443.405 231.205C444.419 229.931 446.508 229.294 449.671 229.294C452.904 229.294 454.936 229.883 455.768 231.062C456.6 232.232 457.016 233.437 457.016 234.676C457.016 236.149 456.496 237.363 455.456 238.316C454.425 239.261 453.099 240.14 451.478 240.955C450.074 241.588 449.047 242.082 448.397 242.437C447.756 242.792 447.435 243.13 447.435 243.451H456.99V247H441.949ZM466.202 247.208C463.671 247.208 461.795 246.788 460.573 245.947C459.351 245.106 458.74 243.776 458.74 241.956V234.533C458.74 232.722 459.351 231.396 460.573 230.555C461.803 229.714 463.68 229.294 466.202 229.294C468.724 229.294 470.596 229.714 471.818 230.555C473.04 231.396 473.651 232.722 473.651 234.533V241.956C473.651 243.776 473.04 245.106 471.818 245.947C470.596 246.788 468.724 247.208 466.202 247.208ZM466.202 243.646C466.982 243.646 467.545 243.494 467.892 243.191C468.247 242.888 468.425 242.402 468.425 241.735V234.754C468.425 234.087 468.251 233.606 467.905 233.311C467.558 233.008 466.99 232.856 466.202 232.856C465.378 232.856 464.798 233.003 464.46 233.298C464.122 233.593 463.953 234.078 463.953 234.754V241.735C463.953 242.411 464.122 242.901 464.46 243.204C464.798 243.499 465.378 243.646 466.202 243.646ZM482.833 247.208C480.302 247.208 478.426 246.788 477.204 245.947C475.982 245.106 475.371 243.776 475.371 241.956V234.533C475.371 232.722 475.982 231.396 477.204 230.555C478.434 229.714 480.311 229.294 482.833 229.294C485.355 229.294 487.227 229.714 488.449 230.555C489.671 231.396 490.282 232.722 490.282 234.533V241.956C490.282 243.776 489.671 245.106 488.449 245.947C487.227 246.788 485.355 247.208 482.833 247.208ZM482.833 243.646C483.613 243.646 484.176 243.494 484.523 243.191C484.878 242.888 485.056 242.402 485.056 241.735V234.754C485.056 234.087 484.882 233.606 484.536 233.311C484.189 233.008 483.621 232.856 482.833 232.856C482.009 232.856 481.429 233.003 481.091 233.298C480.753 233.593 480.584 234.078 480.584 234.754V241.735C480.584 242.411 480.753 242.901 481.091 243.204C481.429 243.499 482.009 243.646 482.833 243.646Z" fill="white"/>
<path d="M417.858 181V177.451H422.382V167.623L417.767 168.858V165.062L423.253 163.424H427.569V177.451H431.95V181H417.858ZM441.037 181.208C437.961 181.208 435.941 180.61 434.979 179.414C434.017 178.218 433.536 176.844 433.536 175.293C433.536 173.733 434.217 172.554 435.577 171.757C436.938 170.951 438.758 170.548 441.037 170.548C443.317 170.548 445.128 170.951 446.471 171.757C447.823 172.563 448.499 173.742 448.499 175.293C448.499 176.844 447.979 178.218 446.939 179.414C445.908 180.61 443.941 181.208 441.037 181.208ZM441.024 177.711C441.787 177.711 442.359 177.559 442.74 177.256C443.13 176.953 443.325 176.35 443.325 175.449C443.325 174.504 443.13 173.898 442.74 173.629C442.35 173.352 441.778 173.213 441.024 173.213C440.279 173.213 439.707 173.352 439.308 173.629C438.91 173.898 438.71 174.504 438.71 175.449C438.71 176.35 438.905 176.953 439.295 177.256C439.685 177.559 440.262 177.711 441.024 177.711ZM441.037 172.758C438.732 172.758 436.947 172.416 435.681 171.731C434.425 171.038 433.796 169.933 433.796 168.416C433.796 167.125 434.264 165.95 435.2 164.893C436.145 163.827 438.091 163.294 441.037 163.294C443.828 163.294 445.726 163.827 446.731 164.893C447.737 165.95 448.239 167.125 448.239 168.416C448.239 169.924 447.615 171.025 446.367 171.718C445.119 172.411 443.343 172.758 441.037 172.758ZM441.024 170.21C441.77 170.21 442.324 170.089 442.688 169.846C443.052 169.595 443.234 169.088 443.234 168.325C443.234 167.753 443.044 167.341 442.662 167.09C442.29 166.83 441.744 166.7 441.024 166.7C440.305 166.7 439.755 166.83 439.373 167.09C438.992 167.341 438.801 167.753 438.801 168.325C438.801 169.088 438.983 169.595 439.347 169.846C439.72 170.089 440.279 170.21 441.024 170.21ZM457.614 181.208C455.083 181.208 453.207 180.788 451.985 179.947C450.763 179.106 450.152 177.776 450.152 175.956V168.533C450.152 166.722 450.763 165.396 451.985 164.555C453.215 163.714 455.092 163.294 457.614 163.294C460.136 163.294 462.008 163.714 463.23 164.555C464.452 165.396 465.063 166.722 465.063 168.533V175.956C465.063 177.776 464.452 179.106 463.23 179.947C462.008 180.788 460.136 181.208 457.614 181.208ZM457.614 177.646C458.394 177.646 458.957 177.494 459.304 177.191C459.659 176.888 459.837 176.402 459.837 175.735V168.754C459.837 168.087 459.663 167.606 459.317 167.311C458.97 167.008 458.402 166.856 457.614 166.856C456.79 166.856 456.21 167.003 455.872 167.298C455.534 167.593 455.365 168.078 455.365 168.754V175.735C455.365 176.411 455.534 176.901 455.872 177.204C456.21 177.499 456.79 177.646 457.614 177.646Z" fill="white"/>
<path d="M376.858 127V123.451H381.382V113.623L376.767 114.858V111.062L382.253 109.424H386.569V123.451H390.95V127H376.858ZM399.79 127.182C396.566 127.182 394.525 126.437 393.667 124.946C392.809 123.455 392.38 121.315 392.38 118.524C392.38 115.621 392.853 113.359 393.797 111.738C394.751 110.109 396.9 109.294 400.245 109.294C403.235 109.294 405.159 109.888 406.017 111.075C406.884 112.262 407.317 113.428 407.317 114.572H402.104C402.061 113.879 401.896 113.393 401.61 113.116C401.333 112.83 400.878 112.687 400.245 112.687C399.448 112.687 398.807 112.977 398.321 113.558C397.836 114.139 397.593 115.976 397.593 119.07C397.593 121.332 397.823 122.68 398.282 123.113C398.742 123.538 399.353 123.75 400.115 123.75C400.887 123.75 401.45 123.585 401.805 123.256C402.161 122.927 402.338 122.194 402.338 121.059C402.338 119.846 402.161 119.087 401.805 118.784C401.45 118.481 400.895 118.329 400.141 118.329C399.396 118.329 398.802 118.498 398.36 118.836C397.927 119.165 397.658 119.586 397.554 120.097L395.11 118.992C395.188 118.264 395.877 117.458 397.177 116.574C398.486 115.69 400.081 115.248 401.961 115.248C404.102 115.248 405.58 115.742 406.394 116.73C407.209 117.718 407.616 119.066 407.616 120.773C407.616 122.558 407.148 124.075 406.212 125.323C405.285 126.562 403.144 127.182 399.79 127.182ZM416.842 127.208C414.312 127.208 412.435 126.788 411.213 125.947C409.991 125.106 409.38 123.776 409.38 121.956V114.533C409.38 112.722 409.991 111.396 411.213 110.555C412.444 109.714 414.32 109.294 416.842 109.294C419.364 109.294 421.236 109.714 422.458 110.555C423.68 111.396 424.291 112.722 424.291 114.533V121.956C424.291 123.776 423.68 125.106 422.458 125.947C421.236 126.788 419.364 127.208 416.842 127.208ZM416.842 123.646C417.622 123.646 418.186 123.494 418.532 123.191C418.888 122.888 419.065 122.402 419.065 121.735V114.754C419.065 114.087 418.892 113.606 418.545 113.311C418.199 113.008 417.631 112.856 416.842 112.856C416.019 112.856 415.438 113.003 415.1 113.298C414.762 113.593 414.593 114.078 414.593 114.754V121.735C414.593 122.411 414.762 122.901 415.1 123.204C415.438 123.499 416.019 123.646 416.842 123.646Z" fill="white"/>
<path d="M325.858 86V82.451H330.382V72.623L325.767 73.858V70.062L331.253 68.424H335.569V82.451H339.95V86H325.858ZM349.492 86V82.412H341.25V79.019L346.996 68.45H354.666V79.084H356.811V82.412H354.666V86H349.492ZM346.424 79.084H349.492V72.116H349.453L346.424 79.084ZM365.715 86.208C363.185 86.208 361.308 85.7877 360.086 84.947C358.864 84.1063 358.253 82.776 358.253 80.956V73.533C358.253 71.7217 358.864 70.3957 360.086 69.555C361.317 68.7143 363.193 68.294 365.715 68.294C368.237 68.294 370.109 68.7143 371.331 69.555C372.553 70.3957 373.164 71.7217 373.164 73.533V80.956C373.164 82.776 372.553 84.1063 371.331 84.947C370.109 85.7877 368.237 86.208 365.715 86.208ZM365.715 82.646C366.495 82.646 367.059 82.4943 367.405 82.191C367.761 81.8877 367.938 81.4023 367.938 80.735V73.754C367.938 73.0867 367.765 72.6057 367.418 72.311C367.072 72.0077 366.504 71.856 365.715 71.856C364.892 71.856 364.311 72.0033 363.973 72.298C363.635 72.5927 363.466 73.078 363.466 73.754V80.735C363.466 81.411 363.635 81.9007 363.973 82.204C364.311 82.4987 364.892 82.646 365.715 82.646Z" fill="white"/>
<rect x="52.5001" y="404.598" width="5" height="30" rx="2" transform="rotate(-120 52.5001 404.598)" fill="#D9D9D9"/>
<rect x="471" y="389.598" width="5" height="30" rx="2" transform="rotate(-60 471 389.598)" fill="#D9D9D9"/>
<rect x="499" y="315.954" width="5" height="30" rx="2" transform="rotate(-80 499 315.954)" fill="#D9D9D9"/>
<rect x="499.521" y="237.164" width="5" height="30" rx="2" transform="rotate(-100 499.521 237.164)" fill="#D9D9D9"/>
<rect x="473.5" y="160.598" width="5" height="30" rx="2" transform="rotate(-120 473.5 160.598)" fill="#D9D9D9"/>
<rect x="423.298" y="99.9097" width="5" height="30" rx="2" transform="rotate(-140 423.298 99.9097)" fill="#D9D9D9"/>
<rect x="353.819" y="60.2168" width="5" height="30" rx="2" transform="rotate(-160 353.819 60.2168)" fill="#D9D9D9"/>
<rect x="274" y="16" width="5" height="30" rx="2" fill="#D9D9D9"/>
<rect x="185" y="32.0261" width="5" height="30" rx="2" transform="rotate(-20 185 32.0261)" fill="#D9D9D9"/>
<rect x="108" y="76.9283" width="5" height="30" rx="2" transform="rotate(-40 108 76.9283)" fill="#D9D9D9"/>
<rect x="51.0001" y="145.598" width="5" height="30" rx="2" transform="rotate(-60 51.0001 145.598)" fill="#D9D9D9"/>
<rect x="21.0001" y="228.954" width="5" height="30" rx="2" transform="rotate(-80 21.0001 228.954)" fill="#D9D9D9"/>
<rect x="21.521" y="320.164" width="5" height="30" rx="2" transform="rotate(-100 21.521 320.164)" fill="#D9D9D9"/>
<path d="M500.88 357.503C499.842 357.125 499.306 355.978 499.684 354.94L500.026 354C500.404 352.962 501.552 352.427 502.59 352.805L517.625 358.277C518.663 358.655 519.198 359.802 518.82 360.84L518.478 361.78C518.1 362.818 516.953 363.353 515.915 362.975L500.88 357.503Z" fill="#D9D9D9"/>
<path d="M500.906 192.975C499.868 193.353 498.72 192.818 498.342 191.78L498 190.84C497.622 189.802 498.158 188.655 499.195 188.277L514.231 182.805C515.269 182.427 516.416 182.962 516.794 184L517.136 184.94C517.514 185.978 516.979 187.125 515.941 187.503L500.906 192.975Z" fill="#D9D9D9"/>
<path d="M516 276C514.896 276 514 275.105 514 274L514 273C514 271.895 514.896 271 516 271H532C533.105 271 534 271.895 534 273V274C534 275.105 533.105 276 532 276L516 276Z" fill="#D9D9D9"/>
<path d="M460.461 120.868C459.614 121.578 458.353 121.468 457.643 120.622L457 119.856C456.29 119.01 456.4 117.748 457.247 117.038L469.503 106.754C470.349 106.044 471.611 106.154 472.321 107L472.964 107.766C473.674 108.612 473.563 109.874 472.717 110.584L460.461 120.868Z" fill="#D9D9D9"/>
<path d="M396.799 66.6782C396.247 67.6348 395.024 67.9626 394.067 67.4103L393.201 66.9103C392.245 66.358 391.917 65.1348 392.469 64.1782L400.469 50.3218C401.021 49.3652 402.245 49.0375 403.201 49.5898L404.067 50.0898C405.024 50.6421 405.351 51.8652 404.799 52.8218L396.799 66.6782Z" fill="#D9D9D9"/>
<path d="M228.347 21.4906C228.156 20.4028 228.882 19.3654 229.97 19.1736L230.955 19C232.042 18.8082 233.08 19.5345 233.271 20.6223L236.05 36.3792C236.242 37.467 235.515 38.5043 234.428 38.6961L233.443 38.8698C232.355 39.0616 231.318 38.3353 231.126 37.2475L228.347 21.4906Z" fill="#D9D9D9"/>
<path d="M78.4076 111.007C77.5614 110.297 77.4511 109.035 78.1611 108.189L78.8039 107.423C79.5139 106.577 80.7754 106.467 81.6215 107.177L93.8782 117.461C94.7244 118.171 94.8347 119.433 94.1247 120.279L93.482 121.045C92.7719 121.891 91.5104 122.001 90.6643 121.291L78.4076 111.007Z" fill="#D9D9D9"/>
<path d="M18.0001 276C16.8956 276 16.0001 275.105 16.0001 274L16.0001 273C16.0001 271.895 16.8956 271 18.0001 271H34.0001C35.1047 271 36.0001 271.895 36.0001 273V274C36.0001 275.105 35.1047 276 34.0001 276L18.0001 276Z" fill="#D9D9D9"/>
<path d="M318.302 37.2475C318.11 38.3353 317.073 39.0616 315.985 38.8698L315 38.6962C313.912 38.5044 313.186 37.467 313.378 36.3792L316.156 20.6223C316.348 19.5345 317.385 18.8082 318.473 19L319.458 19.1737C320.546 19.3655 321.272 20.4028 321.08 21.4906L318.302 37.2475Z" fill="#D9D9D9"/>
<path d="M145.201 51.8218C144.649 50.8652 144.977 49.642 145.933 49.0897L146.799 48.5897C147.756 48.0374 148.979 48.3652 149.531 49.3218L157.531 63.1782C158.084 64.1348 157.756 65.3579 156.799 65.9102L155.933 66.4102C154.977 66.9625 153.753 66.6348 153.201 65.6782L145.201 51.8218Z" fill="#D9D9D9"/>
<path d="M33.8795 187.503C32.8416 187.125 32.3064 185.978 32.6842 184.94L33.0262 184C33.404 182.962 34.5517 182.427 35.5896 182.805L50.6247 188.277C51.6626 188.655 52.1978 189.802 51.82 190.84L51.478 191.78C51.1002 192.818 49.9525 193.353 48.9146 192.975L33.8795 187.503Z" fill="#D9D9D9"/>
<path d="M34.9055 362.975C33.8676 363.353 32.7199 362.818 32.3421 361.78L32.0001 360.84C31.6223 359.802 32.1575 358.655 33.1954 358.277L48.2305 352.805C49.2684 352.427 50.4161 352.962 50.7939 354L51.1359 354.94C51.5137 355.978 50.9785 357.125 49.9406 357.503L34.9055 362.975Z" fill="#D9D9D9"/>
<path d="M496.882 378.535C495.88 378.068 495.447 376.878 495.914 375.877L496.337 374.971C496.804 373.97 497.994 373.537 498.995 374.004L508.964 378.652C509.965 379.119 510.398 380.309 509.931 381.31L509.509 382.216C509.042 383.218 507.852 383.651 506.851 383.184L496.882 378.535Z" fill="#D9D9D9"/>
<path d="M511.932 339.415C510.865 339.13 510.232 338.033 510.518 336.966L510.777 336C511.062 334.933 512.159 334.3 513.226 334.586L523.851 337.433C524.918 337.719 525.551 338.815 525.265 339.882L525.007 340.848C524.721 341.915 523.624 342.548 522.557 342.262L511.932 339.415Z" fill="#D9D9D9"/>
<path d="M518.993 297.163C517.892 297.067 517.078 296.097 517.174 294.996L517.262 294C517.358 292.9 518.328 292.086 519.428 292.182L530.386 293.141C531.487 293.237 532.301 294.207 532.205 295.307L532.117 296.303C532.021 297.404 531.051 298.218 529.951 298.122L518.993 297.163Z" fill="#D9D9D9"/>
<path d="M520.254 254.122C519.154 254.218 518.184 253.404 518.087 252.304L518 251.307C517.904 250.207 518.718 249.237 519.818 249.141L530.776 248.182C531.877 248.086 532.847 248.9 532.943 250L533.03 250.996C533.126 252.097 532.312 253.067 531.212 253.163L520.254 254.122Z" fill="#D9D9D9"/>
<path d="M512.708 211.262C511.642 211.548 510.545 210.915 510.259 209.848L510 208.882C509.714 207.815 510.347 206.719 511.414 206.433L522.04 203.586C523.106 203.3 524.203 203.933 524.489 205L524.748 205.966C525.034 207.033 524.401 208.129 523.334 208.415L512.708 211.262Z" fill="#D9D9D9"/>
<path d="M498.149 172.184C497.148 172.651 495.958 172.218 495.491 171.216L495.069 170.31C494.602 169.309 495.035 168.119 496.036 167.652L506.006 163.003C507.007 162.537 508.197 162.97 508.663 163.971L509.086 164.877C509.553 165.878 509.12 167.068 508.119 167.535L498.149 172.184Z" fill="#D9D9D9"/>
<path d="M477.359 133.914C476.454 134.548 475.207 134.328 474.574 133.423L474 132.604C473.367 131.699 473.586 130.452 474.491 129.818L483.502 123.509C484.407 122.875 485.654 123.095 486.287 124L486.861 124.819C487.495 125.724 487.275 126.971 486.37 127.605L477.359 133.914Z" fill="#D9D9D9"/>
<path d="M449.536 102.314C448.755 103.095 447.488 103.095 446.707 102.314L446 101.607C445.219 100.826 445.219 99.5592 446 98.7782L453.778 91C454.559 90.2189 455.826 90.2189 456.607 91L457.314 91.7071C458.095 92.4881 458.095 93.7545 457.314 94.5355L449.536 102.314Z" fill="#D9D9D9"/>
<path d="M416.605 73.3698C415.971 74.2746 414.724 74.4945 413.819 73.8609L413 73.2873C412.095 72.6538 411.875 71.4067 412.509 70.5019L418.818 61.4912C419.452 60.5864 420.699 60.3665 421.604 61L422.423 61.5736C423.328 62.2072 423.548 63.4543 422.914 64.3591L416.605 73.3698Z" fill="#D9D9D9"/>
<path d="M380.564 52.0498C380.097 53.0509 378.908 53.484 377.906 53.0172L377 52.5946C375.999 52.1278 375.566 50.9378 376.033 49.9367L380.682 39.9673C381.148 38.9663 382.338 38.5331 383.339 39L384.246 39.4226C385.247 39.8894 385.68 41.0793 385.213 42.0804L380.564 52.0498Z" fill="#D9D9D9"/>
<path d="M340.416 38.3335C340.13 39.4004 339.033 40.0336 337.966 39.7477L337 39.4889C335.933 39.203 335.3 38.1063 335.586 37.0394L338.433 26.4142C338.719 25.3473 339.815 24.7141 340.882 25L341.848 25.2588C342.915 25.5447 343.548 26.6414 343.263 27.7083L340.416 38.3335Z" fill="#D9D9D9"/>
<path d="M299.163 30.212C299.067 31.3124 298.097 32.1264 296.996 32.0301L296 31.9429C294.9 31.8467 294.086 30.8766 294.182 29.7762L295.141 18.8181C295.237 17.7177 296.207 16.9037 297.308 17L298.304 17.0872C299.404 17.1834 300.218 18.1535 300.122 19.2539L299.163 30.212Z" fill="#D9D9D9"/>
<path d="M252.174 19.2539C252.078 18.1535 252.892 17.1834 253.993 17.0872L254.989 17C256.089 16.9037 257.059 17.7177 257.155 18.8181L258.114 29.7762C258.21 30.8766 257.396 31.8467 256.296 31.9429L255.3 32.0301C254.199 32.1264 253.229 31.3124 253.133 30.212L252.174 19.2539Z" fill="#D9D9D9"/>
<path d="M207.518 26.7083C207.232 25.6413 207.865 24.5447 208.932 24.2588L209.898 24C210.965 23.7141 212.062 24.3473 212.347 25.4142L215.194 36.0394C215.48 37.1063 214.847 38.203 213.78 38.4889L212.814 38.7477C211.747 39.0336 210.651 38.4004 210.365 37.3335L207.518 26.7083Z" fill="#D9D9D9"/>
<path d="M164.845 42.0805C164.379 41.0794 164.812 39.8895 165.813 39.4226L166.719 39C167.72 38.5332 168.91 38.9663 169.377 39.9674L174.026 49.9368C174.493 50.9379 174.059 52.1278 173.058 52.5946L172.152 53.0173C171.151 53.4841 169.961 53.051 169.494 52.0499L164.845 42.0805Z" fill="#D9D9D9"/>
<path d="M127.147 64.359C126.514 63.4542 126.734 62.2071 127.638 61.5736L128.458 61C129.362 60.3664 130.609 60.5863 131.243 61.4911L137.552 70.5018C138.186 71.4066 137.966 72.6537 137.061 73.2873L136.242 73.8608C135.337 74.4944 134.09 74.2745 133.457 73.3697L127.147 64.359Z" fill="#D9D9D9"/>
<path d="M93.4143 94.5356C92.6333 93.7545 92.6333 92.4882 93.4143 91.7071L94.1214 91C94.9025 90.219 96.1688 90.219 96.9499 91L104.728 98.7782C105.509 99.5592 105.509 100.826 104.728 101.607L104.021 102.314C103.24 103.095 101.974 103.095 101.193 102.314L93.4143 94.5356Z" fill="#D9D9D9"/>
<path d="M64.6384 127.605C63.7336 126.971 63.5137 125.724 64.1473 124.819L64.7209 124C65.3544 123.095 66.6015 122.875 67.5063 123.509L76.517 129.818C77.4218 130.452 77.6417 131.699 77.0081 132.604L76.4346 133.423C75.801 134.328 74.5539 134.547 73.6491 133.914L64.6384 127.605Z" fill="#D9D9D9"/>
<path d="M42.8127 166.564C41.8117 166.097 41.3785 164.907 41.8454 163.906L42.268 163C42.7348 161.999 43.9247 161.566 44.9258 162.033L54.8952 166.681C55.8963 167.148 56.3294 168.338 55.8626 169.339L55.44 170.246C54.9732 171.247 53.7832 171.68 52.7821 171.213L42.8127 166.564Z" fill="#D9D9D9"/>
<path d="M26.932 208.415C25.865 208.13 25.2319 207.033 25.5178 205.966L25.7766 205C26.0625 203.933 27.1591 203.3 28.2261 203.586L38.8513 206.433C39.9182 206.719 40.5513 207.815 40.2655 208.882L40.0066 209.848C39.7208 210.915 38.6241 211.548 37.5572 211.262L26.932 208.415Z" fill="#D9D9D9"/>
<path d="M19.9925 253.163C18.8921 253.067 18.0782 252.097 18.1744 250.996L18.2616 250C18.3579 248.9 19.3279 248.086 20.4283 248.182L31.3864 249.141C32.4868 249.237 33.3008 250.207 33.2045 251.307L33.1174 252.303C33.0211 253.404 32.051 254.218 30.9507 254.122L19.9925 253.163Z" fill="#D9D9D9"/>
<path d="M20.254 298.122C19.1536 298.218 18.1836 297.404 18.0873 296.304L18.0001 295.307C17.9039 294.207 18.7178 293.237 19.8182 293.141L30.7763 292.182C31.8767 292.086 32.8468 292.9 32.9431 294L33.0302 294.996C33.1265 296.097 32.3125 297.067 31.2121 297.163L20.254 298.122Z" fill="#D9D9D9"/>
<path d="M27.7085 342.262C26.6415 342.548 25.5449 341.915 25.259 340.848L25.0002 339.882C24.7143 338.815 25.3474 337.719 26.4144 337.433L37.0396 334.586C38.1065 334.3 39.2032 334.933 39.489 336L39.7479 336.966C40.0337 338.033 39.4006 339.129 38.3336 339.415L27.7085 342.262Z" fill="#D9D9D9"/>
<path d="M44.0807 383.213C43.0796 383.68 41.8896 383.247 41.4228 382.246L41.0002 381.339C40.5334 380.338 40.9665 379.148 41.9676 378.681L51.937 374.033C52.9381 373.566 54.128 373.999 54.5948 375L55.0174 375.906C55.4843 376.907 55.0511 378.097 54.0501 378.564L44.0807 383.213Z" fill="#D9D9D9"/>
<rect x="52.5001" y="404.598" width="5" height="30" rx="2" transform="rotate(-120 52.5001 404.598)" fill="#D9D9D9"/>
<rect x="108" y="76.9283" width="5" height="30" rx="2" transform="rotate(-40 108 76.9283)" fill="#D9D9D9"/>
<rect x="51.0001" y="145.598" width="5" height="30" rx="2" transform="rotate(-60 51.0001 145.598)" fill="#D9D9D9"/>
<rect x="21.0001" y="228.954" width="5" height="30" rx="2" transform="rotate(-80 21.0001 228.954)" fill="#D9D9D9"/>
<rect x="21.5211" y="320.164" width="5" height="30" rx="2" transform="rotate(-100 21.5211 320.164)" fill="#D9D9D9"/>
<path d="M78.4076 111.007C77.5614 110.297 77.4511 109.035 78.1611 108.189L78.8039 107.423C79.5139 106.577 80.7754 106.467 81.6215 107.177L93.8782 117.461C94.7244 118.171 94.8347 119.433 94.1247 120.279L93.482 121.045C92.7719 121.891 91.5104 122.001 90.6643 121.291L78.4076 111.007Z" fill="#D9D9D9"/>
<path d="M18.0001 276C16.8956 276 16.0001 275.105 16.0001 274L16.0001 273C16.0001 271.895 16.8956 271 18.0001 271H34.0001C35.1047 271 36.0001 271.895 36.0001 273V274C36.0001 275.105 35.1047 276 34.0001 276L18.0001 276Z" fill="#D9D9D9"/>
<path d="M33.8795 187.503C32.8416 187.125 32.3064 185.978 32.6842 184.94L33.0262 184C33.404 182.962 34.5517 182.427 35.5896 182.805L50.6247 188.277C51.6626 188.655 52.1978 189.802 51.82 190.84L51.478 191.78C51.1002 192.818 49.9525 193.353 48.9146 192.975L33.8795 187.503Z" fill="#D9D9D9"/>
<path d="M34.9056 362.975C33.8677 363.353 32.72 362.818 32.3422 361.78L32.0002 360.84C31.6224 359.802 32.1576 358.655 33.1955 358.277L48.2306 352.805C49.2686 352.427 50.4163 352.962 50.794 354L51.1361 354.94C51.5138 355.978 50.9787 357.125 49.9407 357.503L34.9056 362.975Z" fill="#D9D9D9"/>
<path d="M93.4143 94.5356C92.6333 93.7545 92.6333 92.4882 93.4143 91.7071L94.1214 91C94.9025 90.219 96.1688 90.219 96.9499 91L104.728 98.7782C105.509 99.5592 105.509 100.826 104.728 101.607L104.021 102.314C103.24 103.095 101.974 103.095 101.193 102.314L93.4143 94.5356Z" fill="#D9D9D9"/>
<path d="M64.6384 127.605C63.7336 126.971 63.5137 125.724 64.1473 124.819L64.7209 124C65.3544 123.095 66.6015 122.875 67.5063 123.509L76.517 129.818C77.4218 130.452 77.6417 131.699 77.0081 132.604L76.4346 133.423C75.801 134.328 74.5539 134.547 73.6491 133.914L64.6384 127.605Z" fill="#D9D9D9"/>
<path d="M42.8127 166.564C41.8117 166.097 41.3785 164.907 41.8454 163.906L42.268 163C42.7348 161.999 43.9247 161.566 44.9258 162.033L54.8952 166.681C55.8963 167.148 56.3294 168.338 55.8626 169.339L55.44 170.246C54.9732 171.247 53.7832 171.68 52.7821 171.213L42.8127 166.564Z" fill="#D9D9D9"/>
<path d="M44.0806 383.213C43.0795 383.68 41.8895 383.247 41.4227 382.246L41.0001 381.339C40.5333 380.338 40.9664 379.148 41.9675 378.681L51.9369 374.033C52.9379 373.566 54.1279 373.999 54.5947 375L55.0173 375.906C55.4841 376.907 55.051 378.097 54.0499 378.564L44.0806 383.213Z" fill="#D9D9D9"/>
<path d="M26.932 208.415C25.865 208.13 25.2319 207.033 25.5178 205.966L25.7766 205C26.0625 203.933 27.1591 203.3 28.2261 203.586L38.8513 206.433C39.9182 206.719 40.5513 207.815 40.2655 208.882L40.0066 209.848C39.7208 210.915 38.6241 211.548 37.5572 211.262L26.932 208.415Z" fill="#D9D9D9"/>
<path d="M19.9925 253.163C18.8921 253.067 18.0782 252.097 18.1744 250.996L18.2616 250C18.3579 248.9 19.3279 248.086 20.4283 248.182L31.3864 249.141C32.4868 249.237 33.3008 250.207 33.2045 251.307L33.1174 252.303C33.0211 253.404 32.051 254.218 30.9507 254.122L19.9925 253.163Z" fill="#D9D9D9"/>
<path d="M20.254 298.122C19.1536 298.218 18.1836 297.404 18.0873 296.304L18.0001 295.307C17.9039 294.207 18.7178 293.237 19.8182 293.141L30.7763 292.182C31.8767 292.086 32.8468 292.9 32.9431 294L33.0302 294.996C33.1265 296.097 32.3125 297.067 31.2121 297.163L20.254 298.122Z" fill="#D9D9D9"/>
<path d="M27.7083 342.262C26.6414 342.548 25.5447 341.915 25.2589 340.848L25 339.882C24.7141 338.815 25.3473 337.719 26.4142 337.433L37.0394 334.586C38.1064 334.3 39.203 334.933 39.4889 336L39.7477 336.966C40.0336 338.033 39.4005 339.129 38.3335 339.415L27.7083 342.262Z" fill="#D9D9D9"/>
<rect x="194.5" y="416.5" width="160" height="42" rx="5.5" fill="#886E36" stroke="#292828"/>
</svg>
