<svg width="250" height="45" viewBox="0 0 250 45" fill="none" xmlns="http://www.w3.org/2000/svg">
<path d="M124.703 22.2417C124.665 9.94302 134.577 0.0211666 146.958 0C159.036 0.0194027 168.956 9.94126 169.199 22.2417C168.958 34.4028 159.038 44.3247 146.958 44.4967C134.577 44.3247 124.666 34.4028 124.703 22.2417ZM146.959 36.2981C153.642 36.1949 159.176 29.9146 159.245 22.2417C159.176 14.4215 153.642 8.14122 146.959 8.18532C139.986 8.13946 134.44 14.4198 134.66 22.2417C134.44 29.9137 139.986 36.1941 146.959 36.2981ZM194.372 9.35742V43.3255H185.011V9.35742H171.541V1.75771H207.257V9.35742H194.372ZM218.374 33.9451L214.869 43.3263H203.753L221.312 1.75771H233.016L250 43.3263H238.883L235.37 33.9451H218.374ZM227.169 26.9275H233.016L227.169 11.699L221.312 26.9275H227.169ZM22.2453 9.35742V43.3255H12.8781V9.35742H0V1.75771H35.1296V9.35742H22.2453ZM37.472 22.2417C37.4905 9.94302 47.3974 0.0211666 59.7093 0C71.8625 0.0194027 81.7843 9.94126 81.9634 22.2417C81.7843 34.4028 71.8625 44.3247 59.7093 44.4967C47.3974 44.3247 37.4896 34.4028 37.472 22.2417ZM59.7093 36.2981C66.4721 36.1949 72.001 29.9146 72.0071 22.2417C72.0001 14.4215 66.4721 8.14122 59.7093 8.18532C52.8055 8.13946 47.2669 14.4198 47.4283 22.2417C47.2669 29.9137 52.8055 36.1941 59.7093 36.2981ZM103.041 43.3255H107.72V27.5122L124.118 1.75771H113.583L103.041 19.3137L93.0847 1.75771H81.9643L98.3622 27.5122V43.3255H103.041Z" fill="#AB002F"/>
</svg>
