<svg width="250" height="157" viewBox="0 0 250 157" fill="none" xmlns="http://www.w3.org/2000/svg">
<path d="M0 78.2135C0 121.34 56.076 156.428 125 156.428C193.923 156.428 250 121.34 250 78.2135C249.999 35.0834 193.923 0 124.999 0C56.075 0 0 35.0834 0 78.2135ZM3.83583 78.2135C3.83583 37.2066 58.1885 3.84254 125 3.84254C191.81 3.84254 246.164 37.2066 246.164 78.2135C246.164 119.229 191.81 152.592 125 152.592C58.1885 152.591 3.83583 119.23 3.83583 78.2135Z" fill="black"/>
<path d="M113.189 14.2184C83.9327 16.005 62.6832 23.7591 59.0612 33.9749C58.6923 35.0042 58.5023 36.0891 58.4992 37.1826C58.4992 38.9058 58.9864 40.6291 59.953 42.2766C64.0132 49.1945 76.6168 54.8993 94.5522 57.9593L96.4509 58.27L96.7693 56.3732C99.7133 38.4148 106.176 24.2932 114.506 17.6256L119.226 13.8435L113.189 14.2184ZM63.2643 40.3423C62.6391 39.2789 62.3312 38.2298 62.3312 37.196C62.3312 36.5439 62.4434 35.9072 62.6755 35.2589C65.4402 27.4549 84.2213 20.6387 108.213 18.4398C101.369 26.1814 96.1066 38.6565 93.3611 53.8128C77.7704 50.9283 66.5602 45.9609 63.2643 40.3423ZM107.839 57.5211L107.465 59.6078L109.581 59.7689C114.6 60.1438 119.789 60.3462 124.995 60.3462C130.206 60.3462 135.398 60.1438 140.418 59.7689L142.531 59.6078L142.155 57.5211C139.269 41.3166 132.85 31.6369 124.998 31.6369C117.14 31.6369 110.724 41.3166 107.839 57.5211ZM124.999 35.4728C130.367 35.4728 135.323 43.5117 137.934 56.0606C133.689 56.3377 129.365 56.5103 124.995 56.5103C120.631 56.5103 116.305 56.3377 112.065 56.0606C114.668 43.5117 119.632 35.4728 124.999 35.4728ZM135.488 17.6275C143.816 24.2952 150.285 38.4187 153.229 56.3751L153.543 58.272L155.439 57.9613C173.382 54.9012 185.993 49.1945 190.038 42.2775C191.612 39.6193 191.911 36.7482 190.938 33.9777C187.317 23.7629 166.066 16.0088 136.812 14.2204L130.783 13.8454L135.488 17.6275ZM141.792 18.4398C165.778 20.6387 184.558 27.4674 187.315 35.2589C187.555 35.9072 187.667 36.5439 187.667 37.196C187.667 38.2298 187.352 39.2789 186.741 40.3423C183.434 45.9599 172.22 50.9283 156.637 53.8128C153.891 38.6575 148.636 26.1824 141.792 18.4398ZM40.5495 41.5036C27.4012 52.5173 20.4526 65.6013 20.4526 79.3479C20.4526 111.686 59.8849 139.02 112.17 142.915L118.01 143.353L113.563 139.555C102.109 129.755 94.9952 106.505 94.9952 78.8723L95.1151 72.3437L93.5117 72.0176C66.0098 67.0886 46.4442 55.5245 43.6584 42.5748L42.992 39.4659L40.5495 41.5036ZM24.2923 79.3479C24.2923 67.5604 30.0422 56.2476 40.8381 46.4221C45.8679 59.5071 64.6615 70.4076 91.2265 75.4795C91.1929 76.9774 91.1632 78.8723 91.1632 78.8723C91.1632 104.494 97.243 126.621 107.271 138.559C59.6298 133.475 24.2923 108.591 24.2923 79.3479ZM106.277 75.8918L106.266 76.588C106.266 102.273 114.319 121.65 124.999 121.65C135.675 121.65 143.729 102.273 143.729 76.588L143.703 73.8166L141.644 73.9931C136.212 74.4687 130.619 74.7046 125.001 74.7046C119.382 74.7046 113.782 74.4687 108.365 73.9931L106.297 73.8061L106.277 75.8918ZM139.871 77.9507C139.582 101.849 132.053 117.817 124.999 117.817C117.938 117.817 110.409 101.849 110.128 77.9507C115.005 78.3103 119.987 78.5347 124.999 78.5347C130.019 78.5347 134.987 78.3103 139.871 77.9507ZM206.333 42.5748C203.55 55.5245 183.981 67.0876 156.487 72.0176L154.876 72.3168L155.004 78.8713C155.004 106.504 147.886 129.755 136.436 139.554L131.989 143.353L137.821 142.914C190.111 139.019 229.544 111.685 229.544 79.3469C229.544 65.6003 222.588 52.5163 209.44 41.5027L207.005 39.4649L206.333 42.5748ZM209.153 46.4221C219.957 56.2476 225.711 67.5604 225.711 79.3479C225.711 108.591 190.375 133.475 142.729 138.559C152.757 126.621 158.837 104.494 158.837 78.8723C158.837 78.8723 158.799 76.9764 158.773 75.4795C185.33 70.4076 204.123 59.5061 209.153 46.4221Z" fill="black"/>
<path d="M207.693 32.7014C207.869 33.1885 208.03 33.6853 208.157 34.1849C208.88 37.0579 208.73 39.8792 207.793 42.6285C220.268 52.9152 227.621 65.6022 227.621 79.3489C227.621 113.66 181.673 141.482 124.999 141.482C68.3209 141.482 22.3773 113.66 22.3773 79.3489C22.3773 65.6137 29.7382 52.9162 42.197 42.6285C41.2678 39.8792 41.1182 37.0579 41.8412 34.1849C41.9909 33.6397 42.1902 33.1094 42.4367 32.6007C25.4153 44.7277 15.095 60.6204 15.095 78.0265C15.095 116.032 64.2971 146.838 124.998 146.838C185.691 146.838 234.901 116.032 234.901 78.0265C234.903 60.6569 224.624 44.8005 207.693 32.7014Z" fill="url(#paint0_linear_10_20)"/>
<path d="M140.268 57.8586C135.424 58.2221 130.318 58.4206 124.995 58.4206C119.676 58.4206 114.574 58.2221 109.731 57.8586H109.715L106.55 60.1582C112.39 60.6674 118.557 60.9561 124.998 60.9561C131.44 60.9561 137.606 60.6674 143.45 60.1582L140.268 57.8586ZM196.406 33.7495C192.548 20.9983 160.745 11.6341 124.999 11.6341C89.2587 11.6341 57.4569 21.0002 53.599 33.7495C50.2503 44.8111 68.5299 55.0489 97.3696 59.1091L94.8638 56.0587C71.5343 52.0886 57.6678 43.6229 60.8669 34.6222C64.744 23.6939 92.9047 15.7806 124.996 15.7806C157.087 15.7806 185.254 23.6958 189.127 34.6222C192.323 43.6239 178.463 52.0896 155.128 56.0587L152.63 59.1091C181.46 55.0489 199.752 44.8111 196.406 33.7495Z" fill="url(#paint1_linear_10_20)"/>
<path d="M109.769 57.8586C112.447 42.9756 118.258 33.6747 124.996 33.6747C131.742 33.6747 137.548 42.9756 140.23 57.8586H140.284L143.417 60.1323C140.772 40.4776 133.528 27.9171 125.001 27.9171C116.468 27.9171 109.227 40.4776 106.586 60.1323L109.718 57.8586H109.769Z" fill="url(#paint2_linear_10_20)"/>
<path d="M144.366 71.2687L141.804 75.9024C141.804 76.2399 141.819 76.5871 141.819 76.939C141.819 101.609 134.275 120.315 124.997 120.315C115.71 120.315 108.182 101.607 108.182 76.939C108.182 76.5497 108.189 76.1632 108.197 75.7902L105.631 71.2687C105.555 73.1492 105.518 75.0311 105.519 76.9131C105.519 104.883 114.239 126.07 125.001 126.07C135.762 126.07 144.491 104.883 144.491 76.9131C144.487 75.031 144.445 73.1491 144.366 71.2687Z" fill="url(#paint3_linear_10_20)"/>
<path d="M97.4108 59.1206C101.097 31.8019 112.054 11.6321 125 11.6321C111.121 11.6321 99.2913 29.5013 94.9012 56.1124L97.3734 59.1206H97.4108Z" fill="url(#paint4_linear_10_20)"/>
<path d="M152.592 59.1206H152.618L155.09 56.1124C150.708 29.5013 138.87 11.6321 124.999 11.6321C137.945 11.6341 148.91 31.8019 152.592 59.1206Z" fill="url(#paint5_linear_10_20)"/>
<path d="M156.813 73.8905L153.667 70.1333H153.641C153.818 73.1185 153.918 76.1527 153.918 79.2347C153.918 116.571 140.969 146.836 125 146.836C142.905 146.836 156.915 118.766 156.915 79.2347C156.915 77.4261 156.878 75.6521 156.813 73.8905Z" fill="url(#paint6_linear_10_20)"/>
<path d="M96.0884 79.2357C96.0884 76.1536 96.189 73.1195 96.3617 70.1342H96.3406L93.1866 73.8799C93.1197 75.6644 93.0849 77.45 93.082 79.2357C93.082 118.767 107.103 146.837 125.001 146.837C109.038 146.837 96.0884 116.571 96.0884 79.2357Z" fill="url(#paint7_linear_10_20)"/>
<path d="M207.793 42.6275C212.562 46.5612 216.585 50.8535 219.731 55.4123C218.642 48.1619 215.758 41.2987 211.341 35.4469C210.149 34.4997 208.932 33.5845 207.691 32.7023C207.868 33.1895 208.029 33.6862 208.154 34.1858C208.88 37.0579 208.73 39.8782 207.793 42.6275ZM42.198 42.6275C41.2687 39.8782 41.1191 37.057 41.8422 34.1839C41.9918 33.6388 42.1912 33.1085 42.4377 32.5997C41.1585 33.5228 39.8985 34.472 38.6584 35.4469C34.2477 41.3025 31.3641 48.1639 30.2676 55.4123C33.4139 50.8535 37.4291 46.5602 42.198 42.6275Z" fill="#2D2F34"/>
<path d="M1.91797 78.2134C1.91797 36.0826 57.0196 1.92078 125 1.92078C192.971 1.92078 248.074 36.0826 248.074 78.2134C248.074 120.353 192.971 154.502 125 154.502C57.0196 154.501 1.91797 120.354 1.91797 78.2134ZM124.999 146.837C185.693 146.837 234.902 116.031 234.902 78.0255C234.902 40.0163 185.693 9.19926 124.999 9.19926C64.2971 9.19926 15.0921 40.0182 15.0921 78.0255C15.0921 116.031 64.2981 146.837 124.999 146.837Z" fill="url(#paint8_linear_10_20)"/>
<path d="M96.0884 79.2357C96.0884 42.2919 109.038 11.6341 124.999 11.6341C140.968 11.6341 153.918 42.2919 153.918 79.2357C153.918 116.572 140.968 146.837 124.999 146.837C109.03 146.837 96.0884 116.571 96.0884 79.2357ZM124.999 126.07C135.761 126.07 144.49 104.883 144.49 76.9246C144.49 47.9095 135.76 27.9181 124.999 27.9181C114.238 27.9181 105.517 47.9095 105.517 76.9246C105.517 104.883 114.238 126.07 124.999 126.07Z" fill="url(#paint9_linear_10_20)"/>
<path d="M41.8422 34.1839C45.0144 21.6245 83.3784 3.34483 124.999 3.34483C166.616 3.34483 203.662 16.4058 208.157 34.1839C213.188 54.111 176.215 72.1452 124.999 72.1452C73.7745 72.1452 36.8038 54.112 41.8422 34.1839ZM124.999 11.6341C89.2588 11.6341 57.4569 21.0002 53.599 33.7495C49.276 48.0332 81.0184 60.9561 124.999 60.9561C168.988 60.9561 200.725 48.0313 196.406 33.7495C192.548 20.9983 160.747 11.6341 124.999 11.6341Z" fill="url(#paint10_linear_10_20)"/>
<path d="M105.592 71.2313L105.614 71.2466L108.255 75.9024C113.63 76.3617 119.219 76.6245 124.999 76.6245C130.805 76.6245 136.409 76.3627 141.819 75.8909L144.389 71.2447L144.404 71.2294C138.224 71.8172 131.743 72.1433 125.001 72.1433C118.52 72.147 112.043 71.8427 105.592 71.2313ZM208.591 38.4925C207.932 52.7407 186.03 65.3644 153.656 70.1218L153.667 70.1333L156.825 73.9068C188.502 68.2125 209.341 54.2252 208.591 38.4925ZM41.4077 38.4925C40.6588 54.2405 61.496 68.2115 93.1674 73.9068L96.3329 70.1333L96.3406 70.1218C63.9605 65.3654 42.0742 52.7417 41.4077 38.4925Z" fill="url(#paint11_linear_10_20)"/>
<defs>
<linearGradient id="paint0_linear_10_20" x1="124.998" y1="138.338" x2="124.998" y2="51.4039" gradientUnits="userSpaceOnUse">
<stop stop-color="#F0F3F5"/>
<stop offset="0.056" stop-color="#E2E5E8"/>
<stop offset="0.138" stop-color="#D4D8DD"/>
<stop offset="0.242" stop-color="#CCD0D6"/>
<stop offset="0.44" stop-color="#CACED4"/>
<stop offset="0.568" stop-color="#B3B7BD"/>
<stop offset="0.835" stop-color="#797C83"/>
<stop offset="1" stop-color="#52545C"/>
</linearGradient>
<linearGradient id="paint1_linear_10_20" x1="125.002" y1="72.0991" x2="125.002" y2="24.9914" gradientUnits="userSpaceOnUse">
<stop stop-color="#F0F3F5"/>
<stop offset="0.056" stop-color="#E2E5E8"/>
<stop offset="0.138" stop-color="#D4D8DD"/>
<stop offset="0.242" stop-color="#CCD0D6"/>
<stop offset="0.44" stop-color="#CACED4"/>
<stop offset="0.568" stop-color="#B3B7BD"/>
<stop offset="0.835" stop-color="#797C83"/>
<stop offset="1" stop-color="#52545C"/>
</linearGradient>
<linearGradient id="paint2_linear_10_20" x1="140.64" y1="63.4407" x2="111.226" y2="38.7591" gradientUnits="userSpaceOnUse">
<stop stop-color="#F0F3F5"/>
<stop offset="0.056" stop-color="#E2E5E8"/>
<stop offset="0.138" stop-color="#D4D8DD"/>
<stop offset="0.242" stop-color="#CCD0D6"/>
<stop offset="0.44" stop-color="#CACED4"/>
<stop offset="0.568" stop-color="#B3B7BD"/>
<stop offset="0.835" stop-color="#797C83"/>
<stop offset="1" stop-color="#52545C"/>
</linearGradient>
<linearGradient id="paint3_linear_10_20" x1="143.631" y1="104.5" x2="100.74" y2="79.7372" gradientUnits="userSpaceOnUse">
<stop stop-color="#F0F3F5"/>
<stop offset="0.056" stop-color="#E2E5E8"/>
<stop offset="0.138" stop-color="#D4D8DD"/>
<stop offset="0.242" stop-color="#CCD0D6"/>
<stop offset="0.44" stop-color="#CACED4"/>
<stop offset="0.568" stop-color="#B3B7BD"/>
<stop offset="0.835" stop-color="#797C83"/>
<stop offset="1" stop-color="#52545C"/>
</linearGradient>
<linearGradient id="paint4_linear_10_20" x1="109.951" y1="1.91407" x2="109.951" y2="76.6321" gradientUnits="userSpaceOnUse">
<stop stop-color="#F0F3F5"/>
<stop offset="0.056" stop-color="#E2E5E8"/>
<stop offset="0.138" stop-color="#D4D8DD"/>
<stop offset="0.242" stop-color="#CCD0D6"/>
<stop offset="0.44" stop-color="#CACED4"/>
<stop offset="0.568" stop-color="#B3B7BD"/>
<stop offset="0.835" stop-color="#797C83"/>
<stop offset="1" stop-color="#52545C"/>
</linearGradient>
<linearGradient id="paint5_linear_10_20" x1="140.045" y1="1.91407" x2="140.045" y2="76.6321" gradientUnits="userSpaceOnUse">
<stop stop-color="#F0F3F5"/>
<stop offset="0.056" stop-color="#E2E5E8"/>
<stop offset="0.138" stop-color="#D4D8DD"/>
<stop offset="0.242" stop-color="#CCD0D6"/>
<stop offset="0.44" stop-color="#CACED4"/>
<stop offset="0.568" stop-color="#B3B7BD"/>
<stop offset="0.835" stop-color="#797C83"/>
<stop offset="1" stop-color="#52545C"/>
</linearGradient>
<linearGradient id="paint6_linear_10_20" x1="140.957" y1="1.28596" x2="140.957" y2="125.983" gradientUnits="userSpaceOnUse">
<stop stop-color="#F0F3F5"/>
<stop offset="0.056" stop-color="#E2E5E8"/>
<stop offset="0.138" stop-color="#D4D8DD"/>
<stop offset="0.242" stop-color="#CCD0D6"/>
<stop offset="0.44" stop-color="#CACED4"/>
<stop offset="0.568" stop-color="#B3B7BD"/>
<stop offset="0.835" stop-color="#797C83"/>
<stop offset="1" stop-color="#52545C"/>
</linearGradient>
<linearGradient id="paint7_linear_10_20" x1="109.041" y1="1.28596" x2="109.041" y2="125.983" gradientUnits="userSpaceOnUse">
<stop stop-color="#F0F3F5"/>
<stop offset="0.056" stop-color="#E2E5E8"/>
<stop offset="0.138" stop-color="#D4D8DD"/>
<stop offset="0.242" stop-color="#CCD0D6"/>
<stop offset="0.44" stop-color="#CACED4"/>
<stop offset="0.568" stop-color="#B3B7BD"/>
<stop offset="0.835" stop-color="#797C83"/>
<stop offset="1" stop-color="#52545C"/>
</linearGradient>
<linearGradient id="paint8_linear_10_20" x1="124.995" y1="1.92078" x2="124.995" y2="154.502" gradientUnits="userSpaceOnUse">
<stop stop-color="#F0F3F5"/>
<stop offset="0.253" stop-color="#EDF0F3"/>
<stop offset="0.406" stop-color="#E5E8EA"/>
<stop offset="0.531" stop-color="#D7DADC"/>
<stop offset="0.642" stop-color="#C3C5C9"/>
<stop offset="0.744" stop-color="#A9ABAF"/>
<stop offset="0.839" stop-color="#888B90"/>
<stop offset="0.926" stop-color="#63656B"/>
<stop offset="1" stop-color="#3D3F46"/>
</linearGradient>
<linearGradient id="paint9_linear_10_20" x1="125.003" y1="1.91312" x2="125.003" y2="154.504" gradientUnits="userSpaceOnUse">
<stop stop-color="#F0F3F5"/>
<stop offset="0.253" stop-color="#EDF0F3"/>
<stop offset="0.406" stop-color="#E5E8EA"/>
<stop offset="0.531" stop-color="#D7DADC"/>
<stop offset="0.642" stop-color="#C3C5C9"/>
<stop offset="0.744" stop-color="#A9ABAF"/>
<stop offset="0.839" stop-color="#888B90"/>
<stop offset="0.926" stop-color="#63656B"/>
<stop offset="1" stop-color="#3D3F46"/>
</linearGradient>
<linearGradient id="paint10_linear_10_20" x1="124.999" y1="1.92941" x2="124.999" y2="154.517" gradientUnits="userSpaceOnUse">
<stop stop-color="#F0F3F5"/>
<stop offset="0.253" stop-color="#EDF0F3"/>
<stop offset="0.406" stop-color="#E5E8EA"/>
<stop offset="0.531" stop-color="#D7DADC"/>
<stop offset="0.642" stop-color="#C3C5C9"/>
<stop offset="0.744" stop-color="#A9ABAF"/>
<stop offset="0.839" stop-color="#888B90"/>
<stop offset="0.926" stop-color="#63656B"/>
<stop offset="1" stop-color="#3D3F46"/>
</linearGradient>
<linearGradient id="paint11_linear_10_20" x1="125" y1="33.5664" x2="125" y2="77.0531" gradientUnits="userSpaceOnUse">
<stop stop-color="#CACED4"/>
<stop offset="1" stop-color="#52545C"/>
</linearGradient>
</defs>
</svg>
